<svg
     xmlns="http://www.w3.org/2000/svg"
     viewBox="0 0 1128 552">
  <defs>

    <svg id="club" xmlns="http://www.w3.org/2000/svg" width="20" height="20" fill="black" viewBox="0 0 256 256"><path d="M184,92a52.88,52.88,0,0,0-8.26.65,52,52,0,1,0-95.48,0A52.88,52.88,0,0,0,72,92a52,52,0,1,0,31.38,93.48L92.17,222.85A4,4,0,0,0,96,228h64a4,4,0,0,0,3.83-5.15l-11.21-37.37A52,52,0,1,0,184,92Zm0,96a43.92,43.92,0,0,1-36.73-19.77,4,4,0,0,0-7.17,3.36L154.62,220H101.38l14.52-48.41a4,4,0,0,0-7.17-3.36,44,44,0,1,1-21.91-65.67,4,4,0,0,0,4.66-6,44,44,0,1,1,73,0,4,4,0,0,0,4.66,6A44,44,0,1,1,184,188Z"></path></svg>
    <svg id="diamond" xmlns="http://www.w3.org/2000/svg" width="20" height="20" fill="red" viewBox="0 0 256 256"><path d="M232.5,119.55,136.45,23.49a12,12,0,0,0-16.9,0l-96,96.06a12,12,0,0,0,0,16.9l96.05,96.06a12,12,0,0,0,16.9,0l96.05-96.06a12,12,0,0,0,0-16.9Zm-5.66,11.24-96.05,96.06a4,4,0,0,1-5.58,0l-96-96.06a3.94,3.94,0,0,1,0-5.58l96.05-96.06a4,4,0,0,1,5.58,0l96.05,96.06a3.94,3.94,0,0,1,0,5.58Z"></path></svg>
    <svg id="heart" xmlns="http://www.w3.org/2000/svg" width="20" height="20" fill="red" viewBox="0 0 256 256"><path d="M178,44c-21.44,0-39.92,10.19-50,27.07C117.92,54.19,99.44,44,78,44a58.07,58.07,0,0,0-58,58c0,28.59,18,58.47,53.4,88.79a333.81,333.81,0,0,0,52.7,36.73,4,4,0,0,0,3.8,0,333.81,333.81,0,0,0,52.7-36.73C218,160.47,236,130.59,236,102A58.07,58.07,0,0,0,178,44ZM128,219.42c-14-8-100-59.35-100-117.42A50.06,50.06,0,0,1,78,52c21.11,0,38.85,11.31,46.3,29.51a4,4,0,0,0,7.4,0C139.15,63.31,156.89,52,178,52a50.06,50.06,0,0,1,50,50C228,160,142,211.46,128,219.42Z"></path></svg>
    <svg id="spade" xmlns="http://www.w3.org/2000/svg" width="20" height="20" fill="black" viewBox="0 0 256 256"><path d="M178.56,52.93a281.08,281.08,0,0,0-48.77-32.51,4,4,0,0,0-3.58,0A281.08,281.08,0,0,0,77.44,52.93C45.1,79.88,28,108.61,28,136a52,52,0,0,0,76.46,45.89l-12.29,41A4,4,0,0,0,96,228h64a4,4,0,0,0,3.83-5.15l-12.29-41A52,52,0,0,0,228,136C228,108.61,210.9,79.88,178.56,52.93ZM176,180a44,44,0,0,1-28.92-10.84,4,4,0,0,0-6.46,4.17l14,46.67H101.38l14-46.67a4,4,0,0,0-6.46-4.17A44,44,0,0,1,36,136c0-56.06,79-100.56,92-107.49,13,6.93,92,51.38,92,107.49A44.05,44.05,0,0,1,176,180Z"></path></svg>
    
    <svg id="arrows-left-right" xmlns="http://www.w3.org/2000/svg" width="32" height="32" fill="currentColor" viewBox="0 0 256 256"><path d="M213.66,181.66l-32,32a8,8,0,0,1-11.32-11.32L188.69,184H48a8,8,0,0,1,0-16H188.69l-18.35-18.34a8,8,0,0,1,11.32-11.32l32,32A8,8,0,0,1,213.66,181.66Zm-139.32-64a8,8,0,0,0,11.32-11.32L67.31,88H208a8,8,0,0,0,0-16H67.31L85.66,53.66A8,8,0,0,0,74.34,42.34l-32,32a8,8,0,0,0,0,11.32Z"></path></svg>

    <svg id ="arrow-square-out" xmlns="http://www.w3.org/2000/svg" width="32" height="32" fill="currentColor" viewBox="0 0 256 256"><path d="M224,104a8,8,0,0,1-16,0V59.32l-66.33,66.34a8,8,0,0,1-11.32-11.32L196.68,48H152a8,8,0,0,1,0-16h64a8,8,0,0,1,8,8Zm-40,24a8,8,0,0,0-8,8v72H48V80h72a8,8,0,0,0,0-16H48A16,16,0,0,0,32,80V208a16,16,0,0,0,16,16H176a16,16,0,0,0,16-16V136A8,8,0,0,0,184,128Z"></path></svg>
    
    <svg id="broom" xmlns="http://www.w3.org/2000/svg" width="32" height="32" fill="currentColor" viewBox="0 0 256 256"><path d="M235.5,216.81c-22.56-11-35.5-34.58-35.5-64.8V134.73a15.94,15.94,0,0,0-10.09-14.87L165,110a8,8,0,0,1-4.48-10.34l21.32-53a28,28,0,0,0-16.1-37,28.14,28.14,0,0,0-35.82,16,.61.61,0,0,0,0,.12L108.9,79a8,8,0,0,1-10.37,4.49L73.11,73.14A15.89,15.89,0,0,0,55.74,76.8C34.68,98.45,24,123.75,24,152a111.45,111.45,0,0,0,31.18,77.53A8,8,0,0,0,61,232H232a8,8,0,0,0,3.5-15.19ZM67.14,88l25.41,10.3a24,24,0,0,0,31.23-13.45l21-53c2.56-6.11,9.47-9.27,15.43-7a12,12,0,0,1,6.88,15.92L145.69,93.76a24,24,0,0,0,13.43,31.14L184,134.73V152c0,.33,0,.66,0,1L55.77,101.71A108.84,108.84,0,0,1,67.14,88Zm48,128a87.53,87.53,0,0,1-24.34-42,8,8,0,0,0-15.49,4,105.16,105.16,0,0,0,18.36,38H64.44A95.54,95.54,0,0,1,40,152a85.9,85.9,0,0,1,7.73-36.29l137.8,55.12c3,18,10.56,33.48,21.89,45.16Z"></path></svg>
    
    <svg id="building" xmlns="http://www.w3.org/2000/svg" width="32" height="32" fill="currentColor" viewBox="0 0 256 256"><path d="M232,224H208V32h8a8,8,0,0,0,0-16H40a8,8,0,0,0,0,16h8V224H24a8,8,0,0,0,0,16H232a8,8,0,0,0,0-16ZM64,32H192V224H160V184a8,8,0,0,0-8-8H104a8,8,0,0,0-8,8v40H64Zm80,192H112V192h32ZM88,64a8,8,0,0,1,8-8h16a8,8,0,0,1,0,16H96A8,8,0,0,1,88,64Zm48,0a8,8,0,0,1,8-8h16a8,8,0,0,1,0,16H144A8,8,0,0,1,136,64ZM88,104a8,8,0,0,1,8-8h16a8,8,0,0,1,0,16H96A8,8,0,0,1,88,104Zm48,0a8,8,0,0,1,8-8h16a8,8,0,0,1,0,16H144A8,8,0,0,1,136,104ZM88,144a8,8,0,0,1,8-8h16a8,8,0,0,1,0,16H96A8,8,0,0,1,88,144Zm48,0a8,8,0,0,1,8-8h16a8,8,0,0,1,0,16H144A8,8,0,0,1,136,144Z"></path></svg>

    <svg id="calendar-dots"  xmlns="http://www.w3.org/2000/svg" width="52" height="52" fill="currentColor" viewBox="0 0 256 256"><path d="M208,32H184V24a8,8,0,0,0-16,0v8H88V24a8,8,0,0,0-16,0v8H48A16,16,0,0,0,32,48V208a16,16,0,0,0,16,16H208a16,16,0,0,0,16-16V48A16,16,0,0,0,208,32ZM72,48v8a8,8,0,0,0,16,0V48h80v8a8,8,0,0,0,16,0V48h24V80H48V48ZM208,208H48V96H208V208Zm-68-76a12,12,0,1,1-12-12A12,12,0,0,1,140,132Zm44,0a12,12,0,1,1-12-12A12,12,0,0,1,184,132ZM96,172a12,12,0,1,1-12-12A12,12,0,0,1,96,172Zm44,0a12,12,0,1,1-12-12A12,12,0,0,1,140,172Zm44,0a12,12,0,1,1-12-12A12,12,0,0,1,184,172Z"></path></svg>

    <svg id="cake" xmlns="http://www.w3.org/2000/svg" width="32" height="32" fill="currentColor" viewBox="0 0 256 256"><path d="M232,112a24,24,0,0,0-24-24H136V79a32.06,32.06,0,0,0,24-31c0-28-26.44-45.91-27.56-46.66a8,8,0,0,0-8.88,0C122.44,2.09,96,20,96,48a32.06,32.06,0,0,0,24,31v9H48a24,24,0,0,0-24,24v23.33a40.84,40.84,0,0,0,8,24.24V200a24,24,0,0,0,24,24H200a24,24,0,0,0,24-24V159.57a40.84,40.84,0,0,0,8-24.24ZM112,48c0-13.57,10-24.46,16-29.79,6,5.33,16,16.22,16,29.79a16,16,0,0,1-32,0ZM40,112a8,8,0,0,1,8-8H208a8,8,0,0,1,8,8v23.33c0,13.25-10.46,24.31-23.32,24.66A24,24,0,0,1,168,136a8,8,0,0,0-16,0,24,24,0,0,1-48,0,8,8,0,0,0-16,0,24,24,0,0,1-24.68,24C50.46,159.64,40,148.58,40,135.33Zm160,96H56a8,8,0,0,1-8-8V172.56A38.77,38.77,0,0,0,62.88,176a39.69,39.69,0,0,0,29-11.31A40.36,40.36,0,0,0,96,160a40,40,0,0,0,64,0,40.36,40.36,0,0,0,4.13,4.67A39.67,39.67,0,0,0,192,176c.38,0,.76,0,1.14,0A38.77,38.77,0,0,0,208,172.56V200A8,8,0,0,1,200,208Z"></path></svg>

    <svg id="chats-circle" xmlns="http://www.w3.org/2000/svg" width="32" height="32" fill="currentColor" viewBox="0 0 256 256"><path d="M232.07,186.76a80,80,0,0,0-62.5-114.17A80,80,0,1,0,23.93,138.76l-7.27,24.71a16,16,0,0,0,19.87,19.87l24.71-7.27a80.39,80.39,0,0,0,25.18,7.35,80,80,0,0,0,108.34,40.65l24.71,7.27a16,16,0,0,0,19.87-19.86ZM62,159.5a8.28,8.28,0,0,0-2.26.32L32,168l8.17-27.76a8,8,0,0,0-.63-6,64,64,0,1,1,26.26,26.26A8,8,0,0,0,62,159.5Zm153.79,28.73L224,216l-27.76-8.17a8,8,0,0,0-6,.63,64.05,64.05,0,0,1-85.87-24.88A79.93,79.93,0,0,0,174.7,89.71a64,64,0,0,1,41.75,92.48A8,8,0,0,0,215.82,188.23Z"></path></svg>
    
    <svg id="clipboard-text" xmlns="http://www.w3.org/2000/svg" width="32" height="32" fill="currentColor" viewBox="0 0 256 256"><path d="M168,152a8,8,0,0,1-8,8H96a8,8,0,0,1,0-16h64A8,8,0,0,1,168,152Zm-8-40H96a8,8,0,0,0,0,16h64a8,8,0,0,0,0-16Zm56-64V216a16,16,0,0,1-16,16H56a16,16,0,0,1-16-16V48A16,16,0,0,1,56,32H92.26a47.92,47.92,0,0,1,71.48,0H200A16,16,0,0,1,216,48ZM96,64h64a32,32,0,0,0-64,0ZM200,48H173.25A47.93,47.93,0,0,1,176,64v8a8,8,0,0,1-8,8H88a8,8,0,0,1-8-8V64a47.93,47.93,0,0,1,2.75-16H56V216H200Z"></path></svg>

    <svg id="clock" xmlns="http://www.w3.org/2000/svg" width="32" height="32" fill="currentColor" viewBox="0 0 256 256"><path d="M128,24A104,104,0,1,0,232,128,104.11,104.11,0,0,0,128,24Zm0,192a88,88,0,1,1,88-88A88.1,88.1,0,0,1,128,216Zm64-88a8,8,0,0,1-8,8H128a8,8,0,0,1-8-8V72a8,8,0,0,1,16,0v48h48A8,8,0,0,1,192,128Z"></path></svg>

    <svg id="dots-six" xmlns="http://www.w3.org/2000/svg" width="32" height="32" fill="currentColor" viewBox="0 0 256 256"><path d="M72,92A12,12,0,1,1,60,80,12,12,0,0,1,72,92Zm56-12a12,12,0,1,0,12,12A12,12,0,0,0,128,80Zm68,24a12,12,0,1,0-12-12A12,12,0,0,0,196,104ZM60,152a12,12,0,1,0,12,12A12,12,0,0,0,60,152Zm68,0a12,12,0,1,0,12,12A12,12,0,0,0,128,152Zm68,0a12,12,0,1,0,12,12A12,12,0,0,0,196,152Z"></path></svg>

    <svg id="dots-three-outline" xmlns="http://www.w3.org/2000/svg" width="32" height="32" fill="currentColor" viewBox="0 0 256 256"><path d="M128,96a32,32,0,1,0,32,32A32,32,0,0,0,128,96Zm0,48a16,16,0,1,1,16-16A16,16,0,0,1,128,144ZM48,96a32,32,0,1,0,32,32A32,32,0,0,0,48,96Zm0,48a16,16,0,1,1,16-16A16,16,0,0,1,48,144ZM208,96a32,32,0,1,0,32,32A32,32,0,0,0,208,96Zm0,48a16,16,0,1,1,16-16A16,16,0,0,1,208,144Z"></path></svg>

    <svg id="empty" xmlns="http://www.w3.org/2000/svg" width="32" height="32" fill="currentColor" viewBox="0 0 256 256"><path d="M198.24,62.63l15.68-17.25a8,8,0,0,0-11.84-10.76L186.4,51.86A95.95,95.95,0,0,0,57.76,193.37L42.08,210.62a8,8,0,1,0,11.84,10.76L69.6,204.14A95.95,95.95,0,0,0,198.24,62.63ZM48,128A80,80,0,0,1,175.6,63.75l-107,117.73A79.63,79.63,0,0,1,48,128Zm80,80a79.55,79.55,0,0,1-47.6-15.75l107-117.73A79.95,79.95,0,0,1,128,208Z"></path></svg>
    
    <svg id= "envelope-simple" xmlns="http://www.w3.org/2000/svg" width="32" height="32" fill="currentColor" viewBox="0 0 256 256"><path d="M224,48H32a8,8,0,0,0-8,8V192a16,16,0,0,0,16,16H216a16,16,0,0,0,16-16V56A8,8,0,0,0,224,48ZM203.43,64,128,133.15,52.57,64ZM216,192H40V74.19l82.59,75.71a8,8,0,0,0,10.82,0L216,74.19V192Z"></path></svg>
    
    <svg id="eraser" xmlns="http://www.w3.org/2000/svg" width="32" height="32" fill="currentColor" viewBox="0 0 256 256"><path d="M225,80.4,183.6,39a24,24,0,0,0-33.94,0L31,157.66a24,24,0,0,0,0,33.94l30.06,30.06A8,8,0,0,0,66.74,224H216a8,8,0,0,0,0-16h-84.7L225,114.34A24,24,0,0,0,225,80.4ZM108.68,208H70.05L42.33,180.28a8,8,0,0,1,0-11.31L96,115.31,148.69,168Zm105-105L160,156.69,107.31,104,161,50.34a8,8,0,0,1,11.32,0l41.38,41.38a8,8,0,0,1,0,11.31Z"></path></svg>

    <svg id="flow-arrow" xmlns="http://www.w3.org/2000/svg" width="32" height="32" fill="currentColor" viewBox="0 0 256 256"><path d="M245.66,74.34l-32-32a8,8,0,0,0-11.32,11.32L220.69,72H208c-49.33,0-61.05,28.12-71.38,52.92-9.38,22.51-16.92,40.59-49.48,42.84a40,40,0,1,0,.1,16c43.26-2.65,54.34-29.15,64.14-52.69C161.41,107,169.33,88,208,88h12.69l-18.35,18.34a8,8,0,0,0,11.32,11.32l32-32A8,8,0,0,0,245.66,74.34ZM48,200a24,24,0,1,1,24-24A24,24,0,0,1,48,200Z"></path></svg>

    <svg id="funnel" xmlns="http://www.w3.org/2000/svg" width="32" height="32" fill="currentColor" viewBox="0 0 256 256"><path d="M230.6,49.53A15.81,15.81,0,0,0,216,40H40A16,16,0,0,0,28.19,66.76l.08.09L96,139.17V216a16,16,0,0,0,24.87,13.32l32-21.34A16,16,0,0,0,160,194.66V139.17l67.74-72.32.08-.09A15.8,15.8,0,0,0,230.6,49.53ZM40,56h0Zm106.18,74.58A8,8,0,0,0,144,136v58.66L112,216V136a8,8,0,0,0-2.16-5.47L40,56H216Z"></path></svg>

    <svg id="grid-nine" xmlns="http://www.w3.org/2000/svg" width="32" height="32" fill="currentColor" viewBox="0 0 256 256"><path d="M216,48H40A16,16,0,0,0,24,64V192a16,16,0,0,0,16,16H216a16,16,0,0,0,16-16V64A16,16,0,0,0,216,48ZM104,144V112h48v32Zm48,16v32H104V160ZM40,112H88v32H40Zm64-16V64h48V96Zm64,16h48v32H168Zm48-16H168V64h48ZM88,64V96H40V64ZM40,160H88v32H40Zm176,32H168V160h48v32Z"></path></svg>

    <svg id="identification-card" xmlns="http://www.w3.org/2000/svg" width="32" height="32" fill="currentColor" viewBox="0 0 256 256"><path d="M200,112a8,8,0,0,1-8,8H152a8,8,0,0,1,0-16h40A8,8,0,0,1,200,112Zm-8,24H152a8,8,0,0,0,0,16h40a8,8,0,0,0,0-16Zm40-80V200a16,16,0,0,1-16,16H40a16,16,0,0,1-16-16V56A16,16,0,0,1,40,40H216A16,16,0,0,1,232,56ZM216,200V56H40V200H216Zm-80.26-34a8,8,0,1,1-15.5,4c-2.63-10.26-13.06-18-24.25-18s-21.61,7.74-24.25,18a8,8,0,1,1-15.5-4,39.84,39.84,0,0,1,17.19-23.34,32,32,0,1,1,45.12,0A39.76,39.76,0,0,1,135.75,166ZM96,136a16,16,0,1,0-16-16A16,16,0,0,0,96,136Z"></path></svg>

    <svg id="wifi-x"  xmlns="http://www.w3.org/2000/svg" viewBox="0 0 256 256"><rect width="256" height="256" fill="none"/><line x1="224" y1="56" x2="176" y2="104" fill="none" stroke="currentColor" stroke-linecap="round" stroke-linejoin="round" stroke-width="16"/><line x1="224" y1="104" x2="176" y2="56" fill="none" stroke="currentColor" stroke-linecap="round" stroke-linejoin="round" stroke-width="16"/><circle cx="128" cy="204" r="12"/><path d="M168,165a68,68,0,0,0-80,0" fill="none" stroke="currentColor" stroke-linecap="round" stroke-linejoin="round" stroke-width="16"/><path d="M136,56.19q-4-.19-8-.19A163.31,163.31,0,0,0,24,93.19" fill="none" stroke="currentColor" stroke-linecap="round" stroke-linejoin="round" stroke-width="16"/><path d="M136,104.27q-4-.27-8-.27a115.51,115.51,0,0,0-72,25" fill="none" stroke="currentColor" stroke-linecap="round" stroke-linejoin="round" stroke-width="16"/></svg>
       
    <svg id="magnifying-glass" xmlns="http://www.w3.org/2000/svg" width="32" height="32" fill="currentColor" viewBox="0 0 256 256"><path d="M229.66,218.34l-50.07-50.06a88.11,88.11,0,1,0-11.31,11.31l50.06,50.07a8,8,0,0,0,11.32-11.32ZM40,112a72,72,0,1,1,72,72A72.08,72.08,0,0,1,40,112Z"></path></svg>

    <svg id="microphone" xmlns="http://www.w3.org/2000/svg" width="32" height="32"  fill="currentColor" viewBox="0 0 256 256"><path d="M128,176a48.05,48.05,0,0,0,48-48V64a48,48,0,0,0-96,0v64A48.05,48.05,0,0,0,128,176ZM96,64a32,32,0,0,1,64,0v64a32,32,0,0,1-64,0Zm40,143.6V240a8,8,0,0,1-16,0V207.6A80.11,80.11,0,0,1,48,128a8,8,0,0,1,16,0,64,64,0,0,0,128,0,8,8,0,0,1,16,0A80.11,80.11,0,0,1,136,207.6Z"></path></svg>

    <svg id="microphone-slash" xmlns="http://www.w3.org/2000/svg" width="32" height="32"  fill="currentColor" viewBox="0 0 256 256"><path d="M213.92,218.62l-160-176A8,8,0,0,0,42.08,53.38L80,95.09V128a48,48,0,0,0,69.11,43.12l11.1,12.2A63.41,63.41,0,0,1,128,192a64.07,64.07,0,0,1-64-64,8,8,0,0,0-16,0,80.11,80.11,0,0,0,72,79.6V240a8,8,0,0,0,16,0V207.59a78.83,78.83,0,0,0,35.16-12.22l30.92,34a8,8,0,1,0,11.84-10.76ZM128,160a32,32,0,0,1-32-32V112.69l41.66,45.82A32,32,0,0,1,128,160Zm57.52-3.91A63.32,63.32,0,0,0,192,128a8,8,0,0,1,16,0,79.16,79.16,0,0,1-8.11,35.12,8,8,0,0,1-7.19,4.49,7.88,7.88,0,0,1-3.51-.82A8,8,0,0,1,185.52,156.09ZM84,44.87A48,48,0,0,1,176,64v64a49.19,49.19,0,0,1-.26,5,8,8,0,0,1-8,7.17,8.13,8.13,0,0,1-.84,0,8,8,0,0,1-7.12-8.79c.11-1.1.17-2.24.17-3.36V64A32,32,0,0,0,98.64,51.25,8,8,0,1,1,84,44.87Z"></path></svg>

    <svg id= "mouse-scroll" xmlns="http://www.w3.org/2000/svg" width="32" height="32" fill="currentColor" viewBox="0 0 256 256"><path d="M144,16H112A64.07,64.07,0,0,0,48,80v96a64.07,64.07,0,0,0,64,64h32a64.07,64.07,0,0,0,64-64V80A64.07,64.07,0,0,0,144,16Zm48,160a48.05,48.05,0,0,1-48,48H112a48.05,48.05,0,0,1-48-48V80a48.05,48.05,0,0,1,48-48h32a48.05,48.05,0,0,1,48,48ZM136,83.31v89.38l10.34-10.35a8,8,0,0,1,11.32,11.32l-24,24a8,8,0,0,1-11.32,0l-24-24a8,8,0,0,1,11.32-11.32L120,172.69V83.31L109.66,93.66A8,8,0,0,1,98.34,82.34l24-24a8,8,0,0,1,11.32,0l24,24a8,8,0,0,1-11.32,11.32Z"></path></svg>

    <svg id="numpad" xmlns="http://www.w3.org/2000/svg" width="32" height="32" fill="currentColor" viewBox="0 0 256 256"><path d="M80,48A16,16,0,1,1,64,32,16,16,0,0,1,80,48Zm48-16a16,16,0,1,0,16,16A16,16,0,0,0,128,32Zm64,32a16,16,0,1,0-16-16A16,16,0,0,0,192,64ZM64,88a16,16,0,1,0,16,16A16,16,0,0,0,64,88Zm64,0a16,16,0,1,0,16,16A16,16,0,0,0,128,88Zm64,0a16,16,0,1,0,16,16A16,16,0,0,0,192,88ZM64,144a16,16,0,1,0,16,16A16,16,0,0,0,64,144Zm64,0a16,16,0,1,0,16,16A16,16,0,0,0,128,144Zm0,56a16,16,0,1,0,16,16A16,16,0,0,0,128,200Zm64-56a16,16,0,1,0,16,16A16,16,0,0,0,192,144Z"></path></svg>

    <svg id = "palette" xmlns="http://www.w3.org/2000/svg" width="32" height="32" fill="currentColor" viewBox="0 0 256 256"><path d="M200.77,53.89A103.27,103.27,0,0,0,128,24h-1.07A104,104,0,0,0,24,128c0,43,26.58,79.06,69.36,94.17A32,32,0,0,0,136,192a16,16,0,0,1,16-16h46.21a31.81,31.81,0,0,0,31.2-24.88,104.43,104.43,0,0,0,2.59-24A103.28,103.28,0,0,0,200.77,53.89Zm13,93.71A15.89,15.89,0,0,1,198.21,160H152a32,32,0,0,0-32,32,16,16,0,0,1-21.31,15.07C62.49,194.3,40,164,40,128a88,88,0,0,1,87.09-88h.9a88.35,88.35,0,0,1,88,87.25A88.86,88.86,0,0,1,213.81,147.6ZM140,76a12,12,0,1,1-12-12A12,12,0,0,1,140,76ZM96,100A12,12,0,1,1,84,88,12,12,0,0,1,96,100Zm0,56a12,12,0,1,1-12-12A12,12,0,0,1,96,156Zm88-56a12,12,0,1,1-12-12A12,12,0,0,1,184,100Z"></path></svg>
    
    <svg id="pencil-simple-line" xmlns="http://www.w3.org/2000/svg" width="32" height="32" fill="currentColor" viewBox="0 0 256 256"><path d="M227.32,73.37,182.63,28.69a16,16,0,0,0-22.63,0L36.69,152A15.86,15.86,0,0,0,32,163.31V208a16,16,0,0,0,16,16H216a8,8,0,0,0,0-16H115.32l112-112A16,16,0,0,0,227.32,73.37ZM92.69,208H48V163.31l88-88L180.69,120ZM192,108.69,147.32,64l24-24L216,84.69Z"></path></svg>
    
    <svg  id="phone-call" xmlns="http://www.w3.org/2000/svg" width="32" height="32" fill="currentColor" viewBox="0 0 256 256"><path d="M144.27,45.93a8,8,0,0,1,9.8-5.66,86.22,86.22,0,0,1,61.66,61.66,8,8,0,0,1-5.66,9.8A8.23,8.23,0,0,1,208,112a8,8,0,0,1-7.73-5.94,70.35,70.35,0,0,0-50.33-50.33A8,8,0,0,1,144.27,45.93Zm-2.33,41.8c13.79,3.68,22.65,12.54,26.33,26.33A8,8,0,0,0,176,120a8.23,8.23,0,0,0,2.07-.27,8,8,0,0,0,5.66-9.8c-5.12-19.16-18.5-32.54-37.66-37.66a8,8,0,1,0-4.13,15.46Zm81.94,95.35A56.26,56.26,0,0,1,168,232C88.6,232,24,167.4,24,88A56.26,56.26,0,0,1,72.92,32.12a16,16,0,0,1,16.62,9.52l21.12,47.15,0,.12A16,16,0,0,1,109.39,104c-.18.27-.37.52-.57.77L88,129.45c7.49,15.22,23.41,31,38.83,38.51l24.34-20.71a8.12,8.12,0,0,1,.75-.56,16,16,0,0,1,15.17-1.4l.13.06,47.11,21.11A16,16,0,0,1,223.88,183.08Zm-15.88-2s-.07,0-.11,0h0l-47-21.05-24.35,20.71a8.44,8.44,0,0,1-.74.56,16,16,0,0,1-15.75,1.14c-18.73-9.05-37.4-27.58-46.46-46.11a16,16,0,0,1,1-15.7,6.13,6.13,0,0,1,.57-.77L96,95.15l-21-47a.61.61,0,0,1,0-.12A40.2,40.2,0,0,0,40,88,128.14,128.14,0,0,0,168,216,40.21,40.21,0,0,0,208,181.07Z"></path></svg>

    <svg  id="phone-disconnect" xmlns="http://www.w3.org/2000/svg" width="32" height="32" fill="currentColor" viewBox="0 0 256 256"><path d="M231.59,90.13h0C175.44,34,80.56,34,24.41,90.13c-20,20-21.92,49.49-4.69,71.71A16,16,0,0,0,32.35,168a15.8,15.8,0,0,0,5.75-1.08l49-17.37.29-.11a16,16,0,0,0,9.75-11.73l5.9-29.52a76.52,76.52,0,0,1,49.68-.11h0l6.21,29.75a16,16,0,0,0,9.72,11.59l.29.11,49,17.39a16,16,0,0,0,18.38-5.06C253.51,139.62,251.58,110.13,231.59,90.13ZM223.67,152l-.3-.12-48.82-17.33-6.21-29.74A16,16,0,0,0,158,93a92.56,92.56,0,0,0-60.34.13,16,16,0,0,0-10.32,12l-5.9,29.51L32.63,151.86c-.1,0-.17.13-.27.17-12.33-15.91-11-36.23,3.36-50.58,25-25,58.65-37.53,92.28-37.53s67.27,12.51,92.28,37.53C234.61,115.8,236,136.12,223.67,152Zm.32,48a8,8,0,0,1-8,8H40a8,8,0,0,1,0-16H216A8,8,0,0,1,224,200Z"></path></svg>

    <svg id="phone-incoming" xmlns="http://www.w3.org/2000/svg" width="32" height="32" fill="currentColor" viewBox="0 0 256 256"><path d="M144,104V64a8,8,0,0,1,16,0V84.69l34.34-34.35a8,8,0,0,1,11.32,11.32L171.32,96H192a8,8,0,0,1,0,16H152A8,8,0,0,1,144,104Zm79.88,79.08A56.26,56.26,0,0,1,168,232C88.6,232,24,167.4,24,88A56.24,56.24,0,0,1,72.92,32.13a16,16,0,0,1,16.62,9.51l21.12,47.15,0,.12A16,16,0,0,1,109.39,104c-.18.27-.37.52-.57.77L88,129.45c7.49,15.22,23.41,31,38.83,38.51l24.34-20.71a8.12,8.12,0,0,1,.75-.56,16,16,0,0,1,15.17-1.4l.13.06,47.11,21.11A16,16,0,0,1,223.88,183.08Zm-15.88-2s-.07,0-.11,0h0l-47-21.05-24.35,20.71a6.84,6.84,0,0,1-.74.56,16,16,0,0,1-15.75,1.14c-18.73-9.05-37.4-27.58-46.46-46.11a16,16,0,0,1,1-15.7,6.13,6.13,0,0,1,.57-.77L96,95.15l-21-47a.61.61,0,0,1,0-.12A40.2,40.2,0,0,0,40,88,128.14,128.14,0,0,0,168,216,40.21,40.21,0,0,0,208,181.07Z"></path></svg>

    <svg id="phone-outgoing" xmlns="http://www.w3.org/2000/svg" width="32" height="32" fill="currentColor" viewBox="0 0 256 256"><path d="M146.34,109.66a8,8,0,0,1,0-11.32L180.69,64H160a8,8,0,0,1,0-16h40a8,8,0,0,1,8,8V96a8,8,0,0,1-16,0V75.31l-34.34,34.35a8,8,0,0,1-11.32,0Zm77.54,73.42A56.26,56.26,0,0,1,168,232C88.6,232,24,167.4,24,88A56.26,56.26,0,0,1,72.92,32.12a16,16,0,0,1,16.62,9.51l21.12,47.16,0,.12A16,16,0,0,1,109.39,104c-.18.27-.37.52-.57.77L88,129.45c7.49,15.22,23.41,31,38.83,38.51l24.34-20.71a8.12,8.12,0,0,1,.75-.56,15.93,15.93,0,0,1,15.17-1.4l.13.06,47.11,21.11A16,16,0,0,1,223.88,183.08Zm-15.88-2s-.07,0-.11,0h0l-47-21.06-24.35,20.72a8.44,8.44,0,0,1-.74.56,16,16,0,0,1-15.75,1.14c-18.73-9.05-37.4-27.58-46.46-46.11a16,16,0,0,1,1-15.7,6.13,6.13,0,0,1,.57-.77L96,95.15l-21-47a.61.61,0,0,1,0-.12A40.2,40.2,0,0,0,40,88,128.14,128.14,0,0,0,168,216,40.21,40.21,0,0,0,208,181.07Z"></path></svg>

    <svg id="phone-pause" xmlns="http://www.w3.org/2000/svg" width="32" height="32"  fill="currentColor" viewBox="0 0 256 256"><path d="M214.36,166.46l-47.1-21.11-.12-.06a16,16,0,0,0-15.18,1.4,8.12,8.12,0,0,0-.75.56L126.87,168c-15.42-7.49-31.34-23.29-38.83-38.51l20.78-24.71c.2-.25.39-.5.57-.77a16,16,0,0,0,1.32-15.06l0-.12L89.54,41.64a16,16,0,0,0-16.62-9.52A56.26,56.26,0,0,0,24,88c0,79.4,64.6,144,144,144a56.26,56.26,0,0,0,55.88-48.92A16,16,0,0,0,214.36,166.46ZM168,216A128.14,128.14,0,0,1,40,88,40.2,40.2,0,0,1,74.87,48a.61.61,0,0,0,0,.12l21,47L75.2,119.86a6.13,6.13,0,0,0-.57.77,16,16,0,0,0-1,15.7c9.06,18.53,27.73,37.06,46.46,46.11a16,16,0,0,0,15.75-1.14,6.92,6.92,0,0,0,.74-.57L160.89,160l47,21.06h0s.08,0,.11,0A40.21,40.21,0,0,1,168,216Zm24-112V48a8,8,0,0,1,16,0v56a8,8,0,0,1-16,0Zm-40,0V48a8,8,0,0,1,16,0v56a8,8,0,0,1-16,0Z"></path></svg>

    <svg id="phone-transfer" xmlns="http://www.w3.org/2000/svg" width="32" height="32" fill="currentColor" viewBox="0 0 256 256"><path d="M136,72a8,8,0,0,1,8-8h52.69L178.34,45.66a8,8,0,0,1,11.32-11.32l32,32a8,8,0,0,1,0,11.32l-32,32a8,8,0,0,1-11.32-11.32L196.69,80H144A8,8,0,0,1,136,72Zm87.87,111.08A56.24,56.24,0,0,1,168,232C88.6,232,24,167.4,24,88A56.24,56.24,0,0,1,72.92,32.13a16,16,0,0,1,16.62,9.51l21.12,47.15,0,.12A16,16,0,0,1,109.39,104c-.18.27-.37.52-.57.77L88,129.45c7.49,15.22,23.41,31,38.83,38.51l24.34-20.71a8.12,8.12,0,0,1,.75-.56,16,16,0,0,1,15.18-1.4l.11.06,47.11,21.11A16,16,0,0,1,223.87,183.08Zm-15.87-2s-.07,0-.11,0h0l-47-21.05-24.35,20.71a8,8,0,0,1-.74.56,16,16,0,0,1-15.75,1.14c-18.73-9-37.4-27.58-46.46-46.11a16,16,0,0,1,1-15.7,7,7,0,0,1,.57-.77L96,95.15l-21-47a.61.61,0,0,1,0-.12A40.2,40.2,0,0,0,40,88,128.14,128.14,0,0,0,168,216,40.21,40.21,0,0,0,208,181.07Z"></path></svg>

    <svg id="plus-circle" xmlns="http://www.w3.org/2000/svg" width="32" height="32" fill="currentColor" viewBox="0 0 256 256"><path d="M128,24A104,104,0,1,0,232,128,104.11,104.11,0,0,0,128,24Zm0,192a88,88,0,1,1,88-88A88.1,88.1,0,0,1,128,216Zm48-88a8,8,0,0,1-8,8H136v32a8,8,0,0,1-16,0V136H88a8,8,0,0,1,0-16h32V88a8,8,0,0,1,16,0v32h32A8,8,0,0,1,176,128Z"></path></svg>

    <svg id="record" xmlns="http://www.w3.org/2000/svg" width="32" height="32" fill="currentColor" viewBox="0 0 256 256"><path d="M128,24A104,104,0,1,0,232,128,104.11,104.11,0,0,0,128,24Zm0,192a88,88,0,1,1,88-88A88.1,88.1,0,0,1,128,216Zm0-160a72,72,0,1,0,72,72A72.08,72.08,0,0,0,128,56Zm0,128a56,56,0,1,1,56-56A56.06,56.06,0,0,1,128,184Z"></path></svg>

    <svg id="squares-four" xmlns="http://www.w3.org/2000/svg" width="32" height="32" fill="currentColor" viewBox="0 0 256 256"><path d="M104,40H56A16,16,0,0,0,40,56v48a16,16,0,0,0,16,16h48a16,16,0,0,0,16-16V56A16,16,0,0,0,104,40Zm0,64H56V56h48v48Zm96-64H152a16,16,0,0,0-16,16v48a16,16,0,0,0,16,16h48a16,16,0,0,0,16-16V56A16,16,0,0,0,200,40Zm0,64H152V56h48v48Zm-96,32H56a16,16,0,0,0-16,16v48a16,16,0,0,0,16,16h48a16,16,0,0,0,16-16V152A16,16,0,0,0,104,136Zm0,64H56V152h48v48Zm96-64H152a16,16,0,0,0-16,16v48a16,16,0,0,0,16,16h48a16,16,0,0,0,16-16V152A16,16,0,0,0,200,136Zm0,64H152V152h48v48Z"></path></svg>

    <svg id="stack" xmlns="http://www.w3.org/2000/svg" width="32" height="32" fill="currentColor" viewBox="0 0 256 256"><path d="M230.91,172A8,8,0,0,1,228,182.91l-96,56a8,8,0,0,1-8.06,0l-96-56A8,8,0,0,1,36,169.09l92,53.65,92-53.65A8,8,0,0,1,230.91,172ZM220,121.09l-92,53.65L36,121.09A8,8,0,0,0,28,134.91l96,56a8,8,0,0,0,8.06,0l96-56A8,8,0,1,0,220,121.09ZM24,80a8,8,0,0,1,4-6.91l96-56a8,8,0,0,1,8.06,0l96,56a8,8,0,0,1,0,13.82l-96,56a8,8,0,0,1-8.06,0l-96-56A8,8,0,0,1,24,80Zm23.88,0L128,126.74,208.12,80,128,33.26Z"></path></svg>

    <svg id="table" xmlns="http://www.w3.org/2000/svg" width="32" height="32" fill="currentColor" viewBox="0 0 256 256"><path d="M224,48H32a8,8,0,0,0-8,8V192a16,16,0,0,0,16,16H216a16,16,0,0,0,16-16V56A8,8,0,0,0,224,48ZM40,112H80v32H40Zm56,0H216v32H96ZM216,64V96H40V64ZM40,160H80v32H40Zm176,32H96V160H216v32Z"></path></svg>

    <svg id="tag" xmlns="http://www.w3.org/2000/svg" width="32" height="32" fill="currentColor" viewBox="0 0 256 256"><path d="M243.31,136,144,36.69A15.86,15.86,0,0,0,132.69,32H40a8,8,0,0,0-8,8v92.69A15.86,15.86,0,0,0,36.69,144L136,243.31a16,16,0,0,0,22.63,0l84.68-84.68a16,16,0,0,0,0-22.63Zm-96,96L48,132.69V48h84.69L232,147.31ZM96,84A12,12,0,1,1,84,72,12,12,0,0,1,96,84Z"></path></svg>

    <svg id="telegram-logo" xmlns="http://www.w3.org/2000/svg" width="32" height="32" fill="currentColor" viewBox="0 0 256 256"><path d="M228.88,26.19a9,9,0,0,0-9.16-1.57L17.06,103.93a14.22,14.22,0,0,0,2.43,27.21L72,141.45V200a15.92,15.92,0,0,0,10,14.83,15.91,15.91,0,0,0,17.51-3.73l25.32-26.26L165,220a15.88,15.88,0,0,0,10.51,4,16.3,16.3,0,0,0,5-.79,15.85,15.85,0,0,0,10.67-11.63L231.77,35A9,9,0,0,0,228.88,26.19Zm-61.14,36L78.15,126.35l-49.6-9.73ZM88,200V152.52l24.79,21.74Zm87.53,8L92.85,135.5l119-85.29Z"></path></svg>
    
    <svg id="ticket" xmlns="http://www.w3.org/2000/svg" width="32" height="32" fill="currentColor" viewBox="0 0 256 256"><path d="M232,104a8,8,0,0,0,8-8V64a16,16,0,0,0-16-16H32A16,16,0,0,0,16,64V96a8,8,0,0,0,8,8,24,24,0,0,1,0,48,8,8,0,0,0-8,8v32a16,16,0,0,0,16,16H224a16,16,0,0,0,16-16V160a8,8,0,0,0-8-8,24,24,0,0,1,0-48ZM32,167.2a40,40,0,0,0,0-78.4V64H88V192H32Zm192,0V192H104V64H224V88.8a40,40,0,0,0,0,78.4Z"></path></svg> 

    <svg id="trash" xmlns="http://www.w3.org/2000/svg" width="32" height="32" fill="currentColor" viewBox="0 0 256 256"><path d="M216,48H176V40a24,24,0,0,0-24-24H104A24,24,0,0,0,80,40v8H40a8,8,0,0,0,0,16h8V208a16,16,0,0,0,16,16H192a16,16,0,0,0,16-16V64h8a8,8,0,0,0,0-16ZM96,40a8,8,0,0,1,8-8h48a8,8,0,0,1,8,8v8H96Zm96,168H64V64H192ZM112,104v64a8,8,0,0,1-16,0V104a8,8,0,0,1,16,0Zm48,0v64a8,8,0,0,1-16,0V104a8,8,0,0,1,16,0Z"></path></svg>

    <svg id="user" xmlns="http://www.w3.org/2000/svg" width="32" height="32" fill="currentColor" viewBox="0 0 256 256"><path d="M230.92,212c-15.23-26.33-38.7-45.21-66.09-54.16a72,72,0,1,0-73.66,0C63.78,166.78,40.31,185.66,25.08,212a8,8,0,1,0,13.85,8c18.84-32.56,52.14-52,89.07-52s70.23,19.44,89.07,52a8,8,0,1,0,13.85-8ZM72,96a56,56,0,1,1,56,56A56.06,56.06,0,0,1,72,96Z"></path></svg>

    <svg id="users" xmlns="http://www.w3.org/2000/svg" width="32" height="32" fill="currentColor" viewBox="0 0 256 256"><path d="M117.25,157.92a60,60,0,1,0-66.5,0A95.83,95.83,0,0,0,3.53,195.63a8,8,0,1,0,13.4,8.74,80,80,0,0,1,134.14,0,8,8,0,0,0,13.4-8.74A95.83,95.83,0,0,0,117.25,157.92ZM40,108a44,44,0,1,1,44,44A44.05,44.05,0,0,1,40,108Zm210.14,98.7a8,8,0,0,1-11.07-2.33A79.83,79.83,0,0,0,172,168a8,8,0,0,1,0-16,44,44,0,1,0-16.34-84.87,8,8,0,1,1-5.94-14.85,60,60,0,0,1,55.53,105.64,95.83,95.83,0,0,1,47.22,37.71A8,8,0,0,1,250.14,206.7Z"></path></svg>

    <svg id="video-camera" xmlns="http://www.w3.org/2000/svg" width="32" height="32" fill="currentColor" viewBox="0 0 256 256"><path d="M251.77,73a8,8,0,0,0-8.21.39L208,97.05V72a16,16,0,0,0-16-16H32A16,16,0,0,0,16,72V184a16,16,0,0,0,16,16H192a16,16,0,0,0,16-16V159l35.56,23.71A8,8,0,0,0,248,184a8,8,0,0,0,8-8V80A8,8,0,0,0,251.77,73ZM192,184H32V72H192V184Zm48-22.95-32-21.33V116.28L240,95Z"></path></svg>
    
    <svg id="video-camera-slash" xmlns="http://www.w3.org/2000/svg" width="32" height="32" fill="currentColor" viewBox="0 0 256 256"><path d="M251.77,73a8,8,0,0,0-8.21.39L208,97.05V72a16,16,0,0,0-16-16H113.06a8,8,0,0,0,0,16H192v87.63a8,8,0,0,0,16,0V159l35.56,23.71A8,8,0,0,0,248,184a8,8,0,0,0,8-8V80A8,8,0,0,0,251.77,73ZM240,161.05l-32-21.33V116.28L240,95ZM53.92,34.62A8,8,0,1,0,42.08,45.38L51.73,56H32A16,16,0,0,0,16,72V184a16,16,0,0,0,16,16H182.64l19.44,21.38a8,8,0,1,0,11.84-10.76ZM32,184V72H66.28L168.1,184Z"></path></svg>
        
    <svg id="whatsapp-logo" xmlns="http://www.w3.org/2000/svg" width="32" height="32" fill="currentColor" viewBox="0 0 256 256"><path d="M187.58,144.84l-32-16a8,8,0,0,0-8,.5l-14.69,9.8a40.55,40.55,0,0,1-16-16l9.8-14.69a8,8,0,0,0,.5-8l-16-32A8,8,0,0,0,104,64a40,40,0,0,0-40,40,88.1,88.1,0,0,0,88,88,40,40,0,0,0,40-40A8,8,0,0,0,187.58,144.84ZM152,176a72.08,72.08,0,0,1-72-72A24,24,0,0,1,99.29,80.46l11.48,23L101,118a8,8,0,0,0-.73,7.51,56.47,56.47,0,0,0,30.15,30.15A8,8,0,0,0,138,155l14.61-9.74,23,11.48A24,24,0,0,1,152,176ZM128,24A104,104,0,0,0,36.18,176.88L24.83,210.93a16,16,0,0,0,20.24,20.24l34.05-11.35A104,104,0,1,0,128,24Zm0,192a87.87,87.87,0,0,1-44.06-11.81,8,8,0,0,0-6.54-.67L40,216,52.47,178.6a8,8,0,0,0-.66-6.54A88,88,0,1,1,128,216Z"></path></svg>
    
    <svg id="x-circle" xmlns="http://www.w3.org/2000/svg" width="32" height="32" fill="currentColor" viewBox="0 0 256 256"><path d="M165.66,101.66,139.31,128l26.35,26.34a8,8,0,0,1-11.32,11.32L128,139.31l-26.34,26.35a8,8,0,0,1-11.32-11.32L116.69,128,90.34,101.66a8,8,0,0,1,11.32-11.32L128,116.69l26.34-26.35a8,8,0,0,1,11.32,11.32ZM232,128A104,104,0,1,1,128,24,104.11,104.11,0,0,1,232,128Zm-16,0a88,88,0,1,0-88,88A88.1,88.1,0,0,0,216,128Z"></path></svg>
    
    
    <svg id="map-pin" xmlns="http://www.w3.org/2000/svg" width="32" height="32" fill="currentColor" viewBox="0 0 256 256"><path d="M128,64a40,40,0,1,0,40,40A40,40,0,0,0,128,64Zm0,64a24,24,0,1,1,24-24A24,24,0,0,1,128,128Zm0-112a88.1,88.1,0,0,0-88,88c0,31.4,14.51,64.68,42,96.25a254.19,254.19,0,0,0,41.45,38.3,8,8,0,0,0,9.18,0A254.19,254.19,0,0,0,174,200.25c27.45-31.57,42-64.85,42-96.25A88.1,88.1,0,0,0,128,16Zm0,206c-16.53-13-72-60.75-72-118a72,72,0,0,1,144,0C200,161.23,144.53,209,128,222Z"></path></svg>

    <svg id="hard-drives" xmlns="http://www.w3.org/2000/svg" width="32" height="32" fill="currentColor" viewBox="0 0 256 256"><path d="M208,136H48a16,16,0,0,0-16,16v48a16,16,0,0,0,16,16H208a16,16,0,0,0,16-16V152A16,16,0,0,0,208,136Zm0,64H48V152H208v48Zm0-160H48A16,16,0,0,0,32,56v48a16,16,0,0,0,16,16H208a16,16,0,0,0,16-16V56A16,16,0,0,0,208,40Zm0,64H48V56H208v48ZM192,80a12,12,0,1,1-12-12A12,12,0,0,1,192,80Zm0,96a12,12,0,1,1-12-12A12,12,0,0,1,192,176Z"></path></svg>

    <svg id="folder" xmlns="http://www.w3.org/2000/svg" width="32" height="32" fill="currentColor" viewBox="0 0 256 256"><path d="M216,72H131.31L104,44.69A15.86,15.86,0,0,0,92.69,40H40A16,16,0,0,0,24,56V200.62A15.4,15.4,0,0,0,39.38,216H216.89A15.13,15.13,0,0,0,232,200.89V88A16,16,0,0,0,216,72ZM40,56H92.69l16,16H40ZM216,200H40V88H216Z"></path></svg>

    <svg id="desktop" xmlns="http://www.w3.org/2000/svg" width="32" height="32" fill="currentColor" viewBox="0 0 256 256"><path d="M208,40H48A24,24,0,0,0,24,64V176a24,24,0,0,0,24,24h72v16H96a8,8,0,0,0,0,16h64a8,8,0,0,0,0-16H136V200h72a24,24,0,0,0,24-24V64A24,24,0,0,0,208,40ZM48,56H208a8,8,0,0,1,8,8v80H40V64A8,8,0,0,1,48,56ZM208,184H48a8,8,0,0,1-8-8V160H216v16A8,8,0,0,1,208,184Z"></path></svg>

    <svg id="device-mobile" xmlns="http://www.w3.org/2000/svg" width="32" height="32" fill="currentColor" viewBox="0 0 256 256"><path d="M176,16H80A24,24,0,0,0,56,40V216a24,24,0,0,0,24,24h96a24,24,0,0,0,24-24V40A24,24,0,0,0,176,16ZM72,64H184V192H72Zm8-32h96a8,8,0,0,1,8,8v8H72V40A8,8,0,0,1,80,32Zm96,192H80a8,8,0,0,1-8-8v-8H184v8A8,8,0,0,1,176,224Z"></path></svg>
    
    <svg id="info" xmlns="http://www.w3.org/2000/svg" width="32" height="32" fill="currentColor" viewBox="0 0 256 256"><path d="M128,24A104,104,0,1,0,232,128,104.11,104.11,0,0,0,128,24Zm0,192a88,88,0,1,1,88-88A88.1,88.1,0,0,1,128,216Zm16-40a8,8,0,0,1-8,8,16,16,0,0,1-16-16V128a8,8,0,0,1,0-16,16,16,0,0,1,16,16v40A8,8,0,0,1,144,176ZM112,84a12,12,0,1,1,12,12A12,12,0,0,1,112,84Z"></path></svg>
    <svg id="list" xmlns="http://www.w3.org/2000/svg" width="32" height="32" fill="currentColor" viewBox="0 0 256 256"><path d="M224,128a8,8,0,0,1-8,8H40a8,8,0,0,1,0-16H216A8,8,0,0,1,224,128ZM40,72H216a8,8,0,0,0,0-16H40a8,8,0,0,0,0,16ZM216,184H40a8,8,0,0,0,0,16H216a8,8,0,0,0,0-16Z"></path></svg>
    <svg id="dots-three-vertical" xmlns="http://www.w3.org/2000/svg" width="32" height="32" fill="currentColor" viewBox="0 0 256 256"><path d="M140,128a12,12,0,1,1-12-12A12,12,0,0,1,140,128ZM128,72a12,12,0,1,0-12-12A12,12,0,0,0,128,72Zm0,112a12,12,0,1,0,12,12A12,12,0,0,0,128,184Z"></path></svg>
    <svg id="warning" xmlns="http://www.w3.org/2000/svg" width="32" height="32" fill="currentColor" viewBox="0 0 256 256"><path d="M236.8,188.09,149.35,36.22h0a24.76,24.76,0,0,0-42.7,0L19.2,188.09a23.51,23.51,0,0,0,0,23.72A24.35,24.35,0,0,0,40.55,224h174.9a24.35,24.35,0,0,0,21.33-12.19A23.51,23.51,0,0,0,236.8,188.09ZM222.93,203.8a8.5,8.5,0,0,1-7.48,4.2H40.55a8.5,8.5,0,0,1-7.48-4.2,7.59,7.59,0,0,1,0-7.72L120.52,44.21a8.75,8.75,0,0,1,15,0l87.45,151.87A7.59,7.59,0,0,1,222.93,203.8ZM120,144V104a8,8,0,0,1,16,0v40a8,8,0,0,1-16,0Zm20,36a12,12,0,1,1-12-12A12,12,0,0,1,140,180Z"></path></svg>
    <svg id="check-circle" xmlns="http://www.w3.org/2000/svg" width="32" height="32" fill="currentColor" viewBox="0 0 256 256"><path d="M173.66,98.34a8,8,0,0,1,0,11.32l-56,56a8,8,0,0,1-11.32,0l-24-24a8,8,0,0,1,11.32-11.32L112,148.69l50.34-50.35A8,8,0,0,1,173.66,98.34ZM232,128A104,104,0,1,1,128,24,104.11,104.11,0,0,1,232,128Zm-16,0a88,88,0,1,0-88,88A88.1,88.1,0,0,0,216,128Z"></path></svg>
    <svg id="download-simple" xmlns="http://www.w3.org/2000/svg" width="32" height="32" fill="currentColor" viewBox="0 0 256 256"><path d="M224,144v64a8,8,0,0,1-8,8H40a8,8,0,0,1-8-8V144a8,8,0,0,1,16,0v56H208V144a8,8,0,0,1,16,0Zm-101.66,5.66a8,8,0,0,0,11.32,0l40-40a8,8,0,0,0-11.32-11.32L136,124.69V32a8,8,0,0,0-16,0v92.69L93.66,98.34a8,8,0,0,0-11.32,11.32Z"></path></svg>
    <svg id="image" xmlns="http://www.w3.org/2000/svg" width="32" height="32" fill="currentColor" viewBox="0 0 256 256"><path d="M216,40H40A16,16,0,0,0,24,56V200a16,16,0,0,0,16,16H216a16,16,0,0,0,16-16V56A16,16,0,0,0,216,40Zm0,16V158.75l-26.07-26.06a16,16,0,0,0-22.63,0l-20,20-44-44a16,16,0,0,0-22.62,0L40,149.37V56ZM40,172l52-52,80,80H40Zm176,28H194.63l-36-36,20-20L216,181.38V200ZM144,100a12,12,0,1,1,12,12A12,12,0,0,1,144,100Z"></path></svg>  
    <svg id="file" xmlns="http://www.w3.org/2000/svg" width="32" height="32" fill="currentColor" viewBox="0 0 256 256"><path d="M213.66,82.34l-56-56A8,8,0,0,0,152,24H56A16,16,0,0,0,40,40V216a16,16,0,0,0,16,16H200a16,16,0,0,0,16-16V88A8,8,0,0,0,213.66,82.34ZM160,51.31,188.69,80H160ZM200,216H56V40h88V88a8,8,0,0,0,8,8h48V216Z"></path></svg>
    <svg id="headphones" xmlns="http://www.w3.org/2000/svg" width="32" height="32" fill="currentColor" viewBox="0 0 256 256"><path d="M201.89,54.66A103.43,103.43,0,0,0,128.79,24H128A104,104,0,0,0,24,128v56a24,24,0,0,0,24,24H64a24,24,0,0,0,24-24V144a24,24,0,0,0-24-24H40.36A88,88,0,0,1,128,40h.67a87.71,87.71,0,0,1,87,80H192a24,24,0,0,0-24,24v40a24,24,0,0,0,24,24h16a24,24,0,0,0,24-24V128A103.41,103.41,0,0,0,201.89,54.66ZM64,136a8,8,0,0,1,8,8v40a8,8,0,0,1-8,8H48a8,8,0,0,1-8-8V136Zm152,48a8,8,0,0,1-8,8H192a8,8,0,0,1-8-8V144a8,8,0,0,1,8-8h24Z"></path></svg>
    <svg id="link" xmlns="http://www.w3.org/2000/svg" width="32" height="32" fill="currentColor" viewBox="0 0 256 256"><path d="M240,88.23a54.43,54.43,0,0,1-16,37L189.25,160a54.27,54.27,0,0,1-38.63,16h-.05A54.63,54.63,0,0,1,96,119.84a8,8,0,0,1,16,.45A38.62,38.62,0,0,0,150.58,160h0a38.39,38.39,0,0,0,27.31-11.31l34.75-34.75a38.63,38.63,0,0,0-54.63-54.63l-11,11A8,8,0,0,1,135.7,59l11-11A54.65,54.65,0,0,1,224,48,54.86,54.86,0,0,1,240,88.23ZM109,185.66l-11,11A38.41,38.41,0,0,1,70.6,208h0a38.63,38.63,0,0,1-27.29-65.94L78,107.31A38.63,38.63,0,0,1,144,135.71a8,8,0,0,0,16,.45A54.86,54.86,0,0,0,144,96a54.65,54.65,0,0,0-77.27,0L32,130.75A54.62,54.62,0,0,0,70.56,224h0a54.28,54.28,0,0,0,38.64-16l11-11A8,8,0,0,0,109,185.66Z"></path></svg>
    <svg id="chat-centered-text" xmlns="http://www.w3.org/2000/svg" width="32" height="32" fill="currentColor" viewBox="0 0 256 256"><path d="M88,104a8,8,0,0,1,8-8h64a8,8,0,0,1,0,16H96A8,8,0,0,1,88,104Zm8,40h64a8,8,0,0,0,0-16H96a8,8,0,0,0,0,16ZM232,56V184a16,16,0,0,1-16,16H155.57l-13.68,23.94a16,16,0,0,1-27.78,0L100.43,200H40a16,16,0,0,1-16-16V56A16,16,0,0,1,40,40H216A16,16,0,0,1,232,56Zm-16,0H40V184h65.07a8,8,0,0,1,7,4l16,28,16-28a8,8,0,0,1,7-4H216Z"></path></svg>


    <svg id="eye" xmlns="http://www.w3.org/2000/svg" width="32" height="32" fill="currentColor" viewBox="0 0 256 256"><path d="M247.31,124.76c-.35-.79-8.82-19.58-27.65-38.41C194.57,61.26,162.88,48,128,48S61.43,61.26,36.34,86.35C17.51,105.18,9,124,8.69,124.76a8,8,0,0,0,0,6.5c.35.79,8.82,19.57,27.65,38.4C61.43,194.74,93.12,208,128,208s66.57-13.26,91.66-38.34c18.83-18.83,27.3-37.61,27.65-38.4A8,8,0,0,0,247.31,124.76ZM128,192c-30.78,0-57.67-11.19-79.93-33.25A133.47,133.47,0,0,1,25,128,133.33,133.33,0,0,1,48.07,97.25C70.33,75.19,97.22,64,128,64s57.67,11.19,79.93,33.25A133.46,133.46,0,0,1,231.05,128C223.84,141.46,192.43,192,128,192Zm0-112a48,48,0,1,0,48,48A48.05,48.05,0,0,0,128,80Zm0,80a32,32,0,1,1,32-32A32,32,0,0,1,128,160Z"></path></svg>
    <svg id="eye-slash" xmlns="http://www.w3.org/2000/svg" width="32" height="32" fill="currentColor" viewBox="0 0 256 256"><path d="M53.92,34.62A8,8,0,1,0,42.08,45.38L61.32,66.55C25,88.84,9.38,123.2,8.69,124.76a8,8,0,0,0,0,6.5c.35.79,8.82,19.57,27.65,38.4C61.43,194.74,93.12,208,128,208a127.11,127.11,0,0,0,52.07-10.83l22,24.21a8,8,0,1,0,11.84-10.76Zm47.33,75.84,41.67,45.85a32,32,0,0,1-41.67-45.85ZM128,192c-30.78,0-57.67-11.19-79.93-33.25A133.16,133.16,0,0,1,25,128c4.69-8.79,19.66-33.39,47.35-49.38l18,19.75a48,48,0,0,0,63.66,70l14.73,16.2A112,112,0,0,1,128,192Zm6-95.43a8,8,0,0,1,3-15.72,48.16,48.16,0,0,1,38.77,42.64,8,8,0,0,1-7.22,8.71,6.39,6.39,0,0,1-.75,0,8,8,0,0,1-8-7.26A32.09,32.09,0,0,0,134,96.57Zm113.28,34.69c-.42.94-10.55,23.37-33.36,43.8a8,8,0,1,1-10.67-11.92A132.77,132.77,0,0,0,231.05,128a133.15,133.15,0,0,0-23.12-30.77C185.67,75.19,158.78,64,128,64a118.37,118.37,0,0,0-19.36,1.57A8,8,0,1,1,106,49.79,134,134,0,0,1,128,48c34.88,0,66.57,13.26,91.66,38.35,18.83,18.83,27.3,37.62,27.65,38.41A8,8,0,0,1,247.31,131.26Z"></path></svg>
    <svg id="swap" xmlns="http://www.w3.org/2000/svg" width="32" height="32" fill="currentColor" viewBox="0 0 256 256"><path d="M224,48V152a16,16,0,0,1-16,16H99.31l10.35,10.34a8,8,0,0,1-11.32,11.32l-24-24a8,8,0,0,1,0-11.32l24-24a8,8,0,0,1,11.32,11.32L99.31,152H208V48H96v8a8,8,0,0,1-16,0V48A16,16,0,0,1,96,32H208A16,16,0,0,1,224,48ZM168,192a8,8,0,0,0-8,8v8H48V104H156.69l-10.35,10.34a8,8,0,0,0,11.32,11.32l24-24a8,8,0,0,0,0-11.32l-24-24a8,8,0,0,0-11.32,11.32L156.69,88H48a16,16,0,0,0-16,16V208a16,16,0,0,0,16,16H160a16,16,0,0,0,16-16v-8A8,8,0,0,0,168,192Z"></path></svg>
    <svg id="close" xmlns="http://www.w3.org/2000/svg" width="32" height="32" fill="currentColor" viewBox="0 0 256 256"><path d="M205.66,194.34a8,8,0,0,1-11.32,11.32L128,139.31,61.66,205.66a8,8,0,0,1-11.32-11.32L116.69,128,50.34,61.66A8,8,0,0,1,61.66,50.34L128,116.69l66.34-66.35a8,8,0,0,1,11.32,11.32L139.31,128Z"></path></svg>
    <svg id="paperclip" xmlns="http://www.w3.org/2000/svg" width="32" height="32" fill="currentColor" viewBox="0 0 256 256"><path d="M209.66,122.34a8,8,0,0,1,0,11.32l-82.05,82a56,56,0,0,1-79.2-79.21L147.67,35.73a40,40,0,1,1,56.61,56.55L105,193A24,24,0,1,1,71,159L154.3,74.38A8,8,0,1,1,165.7,85.6L82.39,170.31a8,8,0,1,0,11.27,11.36L192.93,81A24,24,0,1,0,159,47L59.76,147.68a40,40,0,1,0,56.53,56.62l82.06-82A8,8,0,0,1,209.66,122.34Z"></path></svg>
    <svg id="paper-plane-right" xmlns="http://www.w3.org/2000/svg" width="32" height="32" fill="currentColor" viewBox="0 0 256 256"><path d="M231.87,114l-168-95.89A16,16,0,0,0,40.92,37.34L71.55,128,40.92,218.67A16,16,0,0,0,56,240a16.15,16.15,0,0,0,7.93-2.1l167.92-96.05a16,16,0,0,0,.05-27.89ZM56,224a.56.56,0,0,0,0-.12L85.74,136H144a8,8,0,0,0,0-16H85.74L56.06,32.16A.46.46,0,0,0,56,32l168,95.83Z"></path></svg>
    <svg id="check" xmlns="http://www.w3.org/2000/svg" width="32" height="32" fill="currentColor" viewBox="0 0 256 256"><path d="M229.66,77.66l-128,128a8,8,0,0,1-11.32,0l-56-56a8,8,0,0,1,11.32-11.32L96,188.69,218.34,66.34a8,8,0,0,1,11.32,11.32Z"></path></svg>
    <svg id="plus" xmlns="http://www.w3.org/2000/svg" width="32" height="32" fill="currentColor" viewBox="0 0 256 256"><path d="M224,128a8,8,0,0,1-8,8H136v80a8,8,0,0,1-16,0V136H40a8,8,0,0,1,0-16h80V40a8,8,0,0,1,16,0v80h80A8,8,0,0,1,224,128Z"></path></svg>
    <svg id="star" xmlns="http://www.w3.org/2000/svg" width="32" height="32" fill="currentColor" viewBox="0 0 256 256"><path d="M239.18,97.26A16.38,16.38,0,0,0,224.92,86l-59-4.76L143.14,26.15a16.36,16.36,0,0,0-30.27,0L90.11,81.23,31.08,86a16.46,16.46,0,0,0-9.37,28.86l45,38.83L53,211.75a16.38,16.38,0,0,0,24.5,17.82L128,198.49l50.53,31.08A16.4,16.4,0,0,0,203,211.75l-13.76-58.07,45-38.83A16.43,16.43,0,0,0,239.18,97.26Zm-15.34,5.47-48.7,42a8,8,0,0,0-2.56,7.91l14.88,62.8a.37.37,0,0,1-.17.48c-.18.14-.23.11-.38,0l-54.72-33.65a8,8,0,0,0-8.38,0L69.09,215.94c-.15.09-.19.12-.38,0a.37.37,0,0,1-.17-.48l14.88-62.8a8,8,0,0,0-2.56-7.91l-48.7-42c-.12-.1-.23-.19-.13-.5s.18-.27.33-.29l63.92-5.16A8,8,0,0,0,103,91.86l24.62-59.61c.08-.17.11-.25.35-.25s.27.08.35.25L153,91.86a8,8,0,0,0,6.75,4.92l63.92,5.16c.15,0,.24,0,.33.29S224,102.63,223.84,102.73Z"></path></svg>
    <svg id="arrow-left" xmlns="http://www.w3.org/2000/svg" width="32" height="32" fill="currentColor" viewBox="0 0 256 256"><path d="M224,128a8,8,0,0,1-8,8H59.31l58.35,58.34a8,8,0,0,1-11.32,11.32l-72-72a8,8,0,0,1,0-11.32l72-72a8,8,0,0,1,11.32,11.32L59.31,120H216A8,8,0,0,1,224,128Z"></path></svg>
    <svg id="copy" xmlns="http://www.w3.org/2000/svg" width="32" height="32" fill="currentColor" viewBox="0 0 256 256"><path d="M216,32H88a8,8,0,0,0-8,8V80H40a8,8,0,0,0-8,8V216a8,8,0,0,0,8,8H168a8,8,0,0,0,8-8V176h40a8,8,0,0,0,8-8V40A8,8,0,0,0,216,32ZM160,208H48V96H160Zm48-48H176V88a8,8,0,0,0-8-8H96V48H208Z"></path></svg>
    <svg id="google-chrome-logo" xmlns="http://www.w3.org/2000/svg" width="32" height="32" fill="currentColor" viewBox="0 0 256 256"><path d="M128,24A104,104,0,1,0,232,128,104.11,104.11,0,0,0,128,24Zm0,16a88,88,0,0,1,73.72,40H128a48.08,48.08,0,0,0-45.6,33l-23.08-40A87.89,87.89,0,0,1,128,40Zm32,88a32,32,0,1,1-32-32A32,32,0,0,1,160,128ZM40,128a87.44,87.44,0,0,1,9.56-39.86L86.43,152c.06.1.13.19.19.28A48,48,0,0,0,137.82,175l-23.1,40A88.14,88.14,0,0,1,40,128Zm92.69,87.87L169.57,152c.08-.14.14-.28.22-.42a47.88,47.88,0,0,0-6-55.58H210a88,88,0,0,1-77.29,119.87Z"></path></svg>
    <svg id="faders-horizontal" xmlns="http://www.w3.org/2000/svg" width="32" height="32" fill="currentColor" viewBox="0 0 256 256"><path d="M176,80a8,8,0,0,1,8-8h32a8,8,0,0,1,0,16H184A8,8,0,0,1,176,80ZM40,88H144v16a8,8,0,0,0,16,0V56a8,8,0,0,0-16,0V72H40a8,8,0,0,0,0,16Zm176,80H120a8,8,0,0,0,0,16h96a8,8,0,0,0,0-16ZM88,144a8,8,0,0,0-8,8v16H40a8,8,0,0,0,0,16H80v16a8,8,0,0,0,16,0V152A8,8,0,0,0,88,144Z"></path></svg>
    <svg id="fingerprint" xmlns="http://www.w3.org/2000/svg" width="32" height="32" fill="currentColor" viewBox="0 0 256 256"><path d="M72,128a134.63,134.63,0,0,1-14.16,60.47,8,8,0,1,1-14.32-7.12A118.8,118.8,0,0,0,56,128,71.73,71.73,0,0,1,83,71.8,8,8,0,1,1,93,84.29,55.76,55.76,0,0,0,72,128Zm56-8a8,8,0,0,0-8,8,184.12,184.12,0,0,1-23,89.1,8,8,0,0,0,14,7.76A200.19,200.19,0,0,0,136,128,8,8,0,0,0,128,120Zm0-32a40,40,0,0,0-40,40,8,8,0,0,0,16,0,24,24,0,0,1,48,0,214.09,214.09,0,0,1-20.51,92A8,8,0,1,0,146,226.83,230,230,0,0,0,168,128,40,40,0,0,0,128,88Zm0-64A104.11,104.11,0,0,0,24,128a87.76,87.76,0,0,1-5,29.33,8,8,0,0,0,15.09,5.33A103.9,103.9,0,0,0,40,128a88,88,0,0,1,176,0,282.24,282.24,0,0,1-5.29,54.45,8,8,0,0,0,6.3,9.4,8.22,8.22,0,0,0,1.55.15,8,8,0,0,0,7.84-6.45A298.37,298.37,0,0,0,232,128,104.12,104.12,0,0,0,128,24ZM94.4,152.17A8,8,0,0,0,85,158.42a151,151,0,0,1-17.21,45.44,8,8,0,0,0,13.86,8,166.67,166.67,0,0,0,19-50.25A8,8,0,0,0,94.4,152.17ZM128,56a72.85,72.85,0,0,0-9,.56,8,8,0,0,0,2,15.87A56.08,56.08,0,0,1,184,128a252.12,252.12,0,0,1-1.92,31A8,8,0,0,0,189,168a8.39,8.39,0,0,0,1,.06,8,8,0,0,0,7.92-7,266.48,266.48,0,0,0,2-33A72.08,72.08,0,0,0,128,56Zm57.93,128.25a8,8,0,0,0-9.75,5.75c-1.46,5.69-3.15,11.4-5,17a8,8,0,0,0,5,10.13,7.88,7.88,0,0,0,2.55.42,8,8,0,0,0,7.58-5.46c2-5.92,3.79-12,5.35-18.05A8,8,0,0,0,185.94,184.26Z"></path></svg>
    <svg id="wifi-high" xmlns="http://www.w3.org/2000/svg" width="32" height="32" fill="currentColor" viewBox="0 0 256 256"><path d="M140,204a12,12,0,1,1-12-12A12,12,0,0,1,140,204ZM237.08,87A172,172,0,0,0,18.92,87,8,8,0,0,0,29.08,99.37a156,156,0,0,1,197.84,0A8,8,0,0,0,237.08,87ZM205,122.77a124,124,0,0,0-153.94,0A8,8,0,0,0,61,135.31a108,108,0,0,1,134.06,0,8,8,0,0,0,11.24-1.3A8,8,0,0,0,205,122.77Zm-32.26,35.76a76.05,76.05,0,0,0-89.42,0,8,8,0,0,0,9.42,12.94,60,60,0,0,1,70.58,0,8,8,0,1,0,9.42-12.94Z"></path></svg>
    <svg id="hash" xmlns="http://www.w3.org/2000/svg" width="32" height="32" fill="currentColor" viewBox="0 0 256 256"><path d="M224,88H175.4l8.47-46.57a8,8,0,0,0-15.74-2.86l-9,49.43H111.4l8.47-46.57a8,8,0,0,0-15.74-2.86L95.14,88H48a8,8,0,0,0,0,16H92.23L83.5,152H32a8,8,0,0,0,0,16H80.6l-8.47,46.57a8,8,0,0,0,6.44,9.3A7.79,7.79,0,0,0,80,224a8,8,0,0,0,7.86-6.57l9-49.43H144.6l-8.47,46.57a8,8,0,0,0,6.44,9.3A7.79,7.79,0,0,0,144,224a8,8,0,0,0,7.86-6.57l9-49.43H208a8,8,0,0,0,0-16H163.77l8.73-48H224a8,8,0,0,0,0-16Zm-76.5,64H99.77l8.73-48h47.73Z"></path></svg>
    <svg id="robot" xmlns="http://www.w3.org/2000/svg" width="32" height="32" fill="currentColor" viewBox="0 0 256 256"><path d="M200,48H136V16a8,8,0,0,0-16,0V48H56A32,32,0,0,0,24,80V192a32,32,0,0,0,32,32H200a32,32,0,0,0,32-32V80A32,32,0,0,0,200,48Zm16,144a16,16,0,0,1-16,16H56a16,16,0,0,1-16-16V80A16,16,0,0,1,56,64H200a16,16,0,0,1,16,16Zm-52-56H92a28,28,0,0,0,0,56h72a28,28,0,0,0,0-56Zm-24,16v24H116V152ZM80,164a12,12,0,0,1,12-12h8v24H92A12,12,0,0,1,80,164Zm84,12h-8V152h8a12,12,0,0,1,0,24ZM72,108a12,12,0,1,1,12,12A12,12,0,0,1,72,108Zm88,0a12,12,0,1,1,12,12A12,12,0,0,1,160,108Z"></path></svg>
    <svg id="squares-four" xmlns="http://www.w3.org/2000/svg" width="32" height="32" fill="currentColor" viewBox="0 0 256 256"><path d="M104,40H56A16,16,0,0,0,40,56v48a16,16,0,0,0,16,16h48a16,16,0,0,0,16-16V56A16,16,0,0,0,104,40Zm0,64H56V56h48v48Zm96-64H152a16,16,0,0,0-16,16v48a16,16,0,0,0,16,16h48a16,16,0,0,0,16-16V56A16,16,0,0,0,200,40Zm0,64H152V56h48v48Zm-96,32H56a16,16,0,0,0-16,16v48a16,16,0,0,0,16,16h48a16,16,0,0,0,16-16V152A16,16,0,0,0,104,136Zm0,64H56V152h48v48Zm96-64H152a16,16,0,0,0-16,16v48a16,16,0,0,0,16,16h48a16,16,0,0,0,16-16V152A16,16,0,0,0,200,136Zm0,64H152V152h48v48Z"></path></svg>
    <svg id="users-three" xmlns="http://www.w3.org/2000/svg" width="32" height="32" fill="currentColor" viewBox="0 0 256 256"><path d="M244.8,150.4a8,8,0,0,1-11.2-1.6A51.6,51.6,0,0,0,192,128a8,8,0,0,1-7.37-4.89,8,8,0,0,1,0-6.22A8,8,0,0,1,192,112a24,24,0,1,0-23.24-30,8,8,0,1,1-15.5-4A40,40,0,1,1,219,117.51a67.94,67.94,0,0,1,27.43,21.68A8,8,0,0,1,244.8,150.4ZM190.92,212a8,8,0,1,1-13.84,8,57,57,0,0,0-98.16,0,8,8,0,1,1-13.84-8,72.06,72.06,0,0,1,33.74-29.92,48,48,0,1,1,58.36,0A72.06,72.06,0,0,1,190.92,212ZM128,176a32,32,0,1,0-32-32A32,32,0,0,0,128,176ZM72,120a8,8,0,0,0-8-8A24,24,0,1,1,87.24,82a8,8,0,1,0,15.5-4A40,40,0,1,0,37,117.51,67.94,67.94,0,0,0,9.6,139.19a8,8,0,1,0,12.8,9.61A51.6,51.6,0,0,1,64,128,8,8,0,0,0,72,120Z"></path></svg>
    <svg id="headset" xmlns="http://www.w3.org/2000/svg" width="32" height="32" fill="currentColor" viewBox="0 0 256 256"><path d="M201.89,54.66A103.43,103.43,0,0,0,128.79,24H128A104,104,0,0,0,24,128v56a24,24,0,0,0,24,24H64a24,24,0,0,0,24-24V144a24,24,0,0,0-24-24H40.36A88.12,88.12,0,0,1,190.54,65.93,87.39,87.39,0,0,1,215.65,120H192a24,24,0,0,0-24,24v40a24,24,0,0,0,24,24h24a24,24,0,0,1-24,24H136a8,8,0,0,0,0,16h56a40,40,0,0,0,40-40V128A103.41,103.41,0,0,0,201.89,54.66ZM64,136a8,8,0,0,1,8,8v40a8,8,0,0,1-8,8H48a8,8,0,0,1-8-8V136Zm128,56a8,8,0,0,1-8-8V144a8,8,0,0,1,8-8h24v56Z"></path></svg>
    <svg id="calendar" xmlns="http://www.w3.org/2000/svg" width="32" height="32" fill="currentColor" viewBox="0 0 256 256"><path d="M208,32H184V24a8,8,0,0,0-16,0v8H88V24a8,8,0,0,0-16,0v8H48A16,16,0,0,0,32,48V208a16,16,0,0,0,16,16H208a16,16,0,0,0,16-16V48A16,16,0,0,0,208,32ZM72,48v8a8,8,0,0,0,16,0V48h80v8a8,8,0,0,0,16,0V48h24V80H48V48ZM208,208H48V96H208V208Zm-96-88v64a8,8,0,0,1-16,0V132.94l-4.42,2.22a8,8,0,0,1-7.16-14.32l16-8A8,8,0,0,1,112,120Zm59.16,30.45L152,176h16a8,8,0,0,1,0,16H136a8,8,0,0,1-6.4-12.8l28.78-38.37A8,8,0,1,0,145.07,132a8,8,0,1,1-13.85-8A24,24,0,0,1,176,136,23.76,23.76,0,0,1,171.16,150.45Z"></path></svg>
    <svg id="clock" xmlns="http://www.w3.org/2000/svg" width="32" height="32" fill="currentColor" viewBox="0 0 256 256"><path d="M128,24A104,104,0,1,0,232,128,104.11,104.11,0,0,0,128,24Zm0,192a88,88,0,1,1,88-88A88.1,88.1,0,0,1,128,216Zm64-88a8,8,0,0,1-8,8H128a8,8,0,0,1-8-8V72a8,8,0,0,1,16,0v48h48A8,8,0,0,1,192,128Z"></path></svg>
    <svg id="translate" xmlns="http://www.w3.org/2000/svg" width="32" height="32" fill="currentColor" viewBox="0 0 256 256"><path d="M247.15,212.42l-56-112a8,8,0,0,0-14.31,0l-21.71,43.43A88,88,0,0,1,108,126.93,103.65,103.65,0,0,0,135.69,64H160a8,8,0,0,0,0-16H104V32a8,8,0,0,0-16,0V48H32a8,8,0,0,0,0,16h87.63A87.76,87.76,0,0,1,96,116.35a87.74,87.74,0,0,1-19-31,8,8,0,1,0-15.08,5.34A103.63,103.63,0,0,0,84,127a87.55,87.55,0,0,1-52,17,8,8,0,0,0,0,16,103.46,103.46,0,0,0,64-22.08,104.18,104.18,0,0,0,51.44,21.31l-26.6,53.19a8,8,0,0,0,14.31,7.16L148.94,192h70.11l13.79,27.58A8,8,0,0,0,240,224a8,8,0,0,0,7.15-11.58ZM156.94,176,184,121.89,211.05,176Z"></path></svg>
    <svg id="hand-palm" xmlns="http://www.w3.org/2000/svg" width="32" height="32" fill="currentColor" viewBox="0 0 256 256"><path d="M188,88a27.75,27.75,0,0,0-12,2.71V60a28,28,0,0,0-41.36-24.6A28,28,0,0,0,80,44v6.71A27.75,27.75,0,0,0,68,48,28,28,0,0,0,40,76v76a88,88,0,0,0,176,0V116A28,28,0,0,0,188,88Zm12,64a72,72,0,0,1-144,0V76a12,12,0,0,1,24,0v44a8,8,0,0,0,16,0V44a12,12,0,0,1,24,0v68a8,8,0,0,0,16,0V60a12,12,0,0,1,24,0v68.67A48.08,48.08,0,0,0,120,176a8,8,0,0,0,16,0,32,32,0,0,1,32-32,8,8,0,0,0,8-8V116a12,12,0,0,1,24,0Z"></path></svg>
    <svg id="hand" xmlns="http://www.w3.org/2000/svg" width="32" height="32" fill="currentColor" viewBox="0 0 256 256"><path d="M188,48a27.75,27.75,0,0,0-12,2.71V44a28,28,0,0,0-54.65-8.6A28,28,0,0,0,80,60v64l-3.82-6.13a28,28,0,0,0-48.6,27.82c16,33.77,28.93,57.72,43.72,72.69C86.24,233.54,103.2,240,128,240a88.1,88.1,0,0,0,88-88V76A28,28,0,0,0,188,48Zm12,104a72.08,72.08,0,0,1-72,72c-20.38,0-33.51-4.88-45.33-16.85C69.44,193.74,57.26,171,41.9,138.58a6.36,6.36,0,0,0-.3-.58,12,12,0,0,1,20.79-12,1.76,1.76,0,0,0,.14.23l18.67,30A8,8,0,0,0,96,152V60a12,12,0,0,1,24,0v60a8,8,0,0,0,16,0V44a12,12,0,0,1,24,0v76a8,8,0,0,0,16,0V76a12,12,0,0,1,24,0Z"></path></svg>
    <svg id="user-circle-minus" xmlns="http://www.w3.org/2000/svg" width="32" height="32" fill="currentColor" viewBox="0 0 256 256"><path d="M168,56a8,8,0,0,1,8-8h48a8,8,0,0,1,0,16H176A8,8,0,0,1,168,56Zm58.08,37.33a103.93,103.93,0,1,1-80.76-67.89,8,8,0,0,1-2.64,15.78A88.07,88.07,0,0,0,40,128a87.62,87.62,0,0,0,22.24,58.41A79.66,79.66,0,0,1,98.3,157.66a48,48,0,1,1,59.4,0,79.66,79.66,0,0,1,36.06,28.75A88,88,0,0,0,211,98.67a8,8,0,0,1,15.09-5.34ZM128,152a32,32,0,1,0-32-32A32,32,0,0,0,128,152Zm0,64a87.57,87.57,0,0,0,53.92-18.5,64,64,0,0,0-107.84,0A87.57,87.57,0,0,0,128,216Z"></path></svg>
    <svg id="sign-out" xmlns="http://www.w3.org/2000/svg" width="32" height="32" fill="currentColor" viewBox="0 0 256 256"><path d="M120,216a8,8,0,0,1-8,8H48a8,8,0,0,1-8-8V40a8,8,0,0,1,8-8h64a8,8,0,0,1,0,16H56V208h56A8,8,0,0,1,120,216Zm109.66-93.66-40-40a8,8,0,0,0-11.32,11.32L204.69,120H112a8,8,0,0,0,0,16h92.69l-26.35,26.34a8,8,0,0,0,11.32,11.32l40-40A8,8,0,0,0,229.66,122.34Z"></path></svg>
    <svg id="pause" xmlns="http://www.w3.org/2000/svg" width="32" height="32" fill="currentColor" viewBox="0 0 256 256"><path d="M200,32H160a16,16,0,0,0-16,16V208a16,16,0,0,0,16,16h40a16,16,0,0,0,16-16V48A16,16,0,0,0,200,32Zm0,176H160V48h40ZM96,32H56A16,16,0,0,0,40,48V208a16,16,0,0,0,16,16H96a16,16,0,0,0,16-16V48A16,16,0,0,0,96,32Zm0,176H56V48H96Z"></path></svg>
    <svg id="play" xmlns="http://www.w3.org/2000/svg" width="32" height="32" fill="currentColor" viewBox="0 0 256 256"><path d="M232.4,114.49,88.32,26.35a16,16,0,0,0-16.2-.3A15.86,15.86,0,0,0,64,39.87V216.13A15.94,15.94,0,0,0,80,232a16.07,16.07,0,0,0,8.36-2.35L232.4,141.51a15.81,15.81,0,0,0,0-27ZM80,215.94V40l143.83,88Z"></path></svg>
    <svg id="trash" xmlns="http://www.w3.org/2000/svg" width="32" height="32" fill="currentColor" viewBox="0 0 256 256"><path d="M216,48H176V40a24,24,0,0,0-24-24H104A24,24,0,0,0,80,40v8H40a8,8,0,0,0,0,16h8V208a16,16,0,0,0,16,16H192a16,16,0,0,0,16-16V64h8a8,8,0,0,0,0-16ZM96,40a8,8,0,0,1,8-8h48a8,8,0,0,1,8,8v8H96Zm96,168H64V64H192ZM112,104v64a8,8,0,0,1-16,0V104a8,8,0,0,1,16,0Zm48,0v64a8,8,0,0,1-16,0V104a8,8,0,0,1,16,0Z"></path></svg>
    <svg id="map-trifold" xmlns="http://www.w3.org/2000/svg" width="32" height="32" fill="currentColor" viewBox="0 0 256 256"><path d="M228.92,49.69a8,8,0,0,0-6.86-1.45L160.93,63.52,99.58,32.84a8,8,0,0,0-5.52-.6l-64,16A8,8,0,0,0,24,56V200a8,8,0,0,0,9.94,7.76l61.13-15.28,61.35,30.68A8.15,8.15,0,0,0,160,224a8,8,0,0,0,1.94-.24l64-16A8,8,0,0,0,232,200V56A8,8,0,0,0,228.92,49.69ZM104,52.94l48,24V203.06l-48-24ZM40,62.25l48-12v127.5l-48,12Zm176,131.5-48,12V78.25l48-12Z"></path></svg>
    <svg id="buildings" xmlns="http://www.w3.org/2000/svg" width="32" height="32" fill="currentColor" viewBox="0 0 256 256"><path d="M240,208H224V96a16,16,0,0,0-16-16H144V32a16,16,0,0,0-24.88-13.32L39.12,72A16,16,0,0,0,32,85.34V208H16a8,8,0,0,0,0,16H240a8,8,0,0,0,0-16ZM208,96V208H144V96ZM48,85.34,128,32V208H48ZM112,112v16a8,8,0,0,1-16,0V112a8,8,0,1,1,16,0Zm-32,0v16a8,8,0,0,1-16,0V112a8,8,0,1,1,16,0Zm0,56v16a8,8,0,0,1-16,0V168a8,8,0,0,1,16,0Zm32,0v16a8,8,0,0,1-16,0V168a8,8,0,0,1,16,0Z"></path></svg>
    <svg id="map-pin-line" xmlns="http://www.w3.org/2000/svg" width="32" height="32" fill="currentColor" viewBox="0 0 256 256"><path d="M200,224H150.54A266.56,266.56,0,0,0,174,200.25c27.45-31.57,42-64.85,42-96.25a88,88,0,0,0-176,0c0,31.4,14.51,64.68,42,96.25A266.56,266.56,0,0,0,105.46,224H56a8,8,0,0,0,0,16H200a8,8,0,0,0,0-16ZM56,104a72,72,0,0,1,144,0c0,57.23-55.47,105-72,118C111.47,209,56,161.23,56,104Zm112,0a40,40,0,1,0-40,40A40,40,0,0,0,168,104Zm-64,0a24,24,0,1,1,24,24A24,24,0,0,1,104,104Z"></path></svg>
    <svg id="storefront" xmlns="http://www.w3.org/2000/svg" width="32" height="32" fill="currentColor" viewBox="0 0 256 256"><path d="M232,96a7.89,7.89,0,0,0-.3-2.2L217.35,43.6A16.07,16.07,0,0,0,202,32H54A16.07,16.07,0,0,0,38.65,43.6L24.31,93.8A7.89,7.89,0,0,0,24,96h0v16a40,40,0,0,0,16,32v72a8,8,0,0,0,8,8H208a8,8,0,0,0,8-8V144a40,40,0,0,0,16-32V96ZM54,48H202l11.42,40H42.61Zm50,56h48v8a24,24,0,0,1-48,0Zm-16,0v8a24,24,0,0,1-35.12,21.26,7.88,7.88,0,0,0-1.82-1.06A24,24,0,0,1,40,112v-8ZM200,208H56V151.2a40.57,40.57,0,0,0,8,.8,40,40,0,0,0,32-16,40,40,0,0,0,64,0,40,40,0,0,0,32,16,40.57,40.57,0,0,0,8-.8Zm4.93-75.8a8.08,8.08,0,0,0-1.8,1.05A24,24,0,0,1,168,112v-8h48v8A24,24,0,0,1,204.93,132.2Z"></path></svg>
    <svg id="soccer-ball" xmlns="http://www.w3.org/2000/svg" width="32" height="32" fill="currentColor" viewBox="0 0 256 256"><path d="M128,24A104,104,0,1,0,232,128,104.11,104.11,0,0,0,128,24Zm76.52,147.42H170.9l-9.26-12.76,12.63-36.78,15-4.89,26.24,20.13A87.38,87.38,0,0,1,204.52,171.42Zm-164-34.3L66.71,117l15,4.89,12.63,36.78L85.1,171.42H51.48A87.38,87.38,0,0,1,40.47,137.12Zm10-50.64,5.51,18.6L40.71,116.77A87.33,87.33,0,0,1,50.43,86.48ZM109,152,97.54,118.65,128,97.71l30.46,20.94L147,152Zm91.07-46.92,5.51-18.6a87.33,87.33,0,0,1,9.72,30.29Zm-6.2-35.38-9.51,32.08-15.07,4.89L136,83.79V68.21l29.09-20A88.58,88.58,0,0,1,193.86,69.7ZM146.07,41.87,128,54.29,109.93,41.87a88.24,88.24,0,0,1,36.14,0ZM90.91,48.21l29.09,20V83.79L86.72,106.67l-15.07-4.89L62.14,69.7A88.58,88.58,0,0,1,90.91,48.21ZM63.15,187.42H83.52l7.17,20.27A88.4,88.4,0,0,1,63.15,187.42ZM110,214.13,98.12,180.71,107.35,168h41.3l9.23,12.71-11.83,33.42a88,88,0,0,1-36.1,0Zm55.36-6.44,7.17-20.27h20.37A88.4,88.4,0,0,1,165.31,207.69Z"></path></svg>
    <svg id="airplane-in-flight" xmlns="http://www.w3.org/2000/svg" width="32" height="32" fill="currentColor" viewBox="0 0 256 256"><path d="M224,216a8,8,0,0,1-8,8H72a8,8,0,1,1,0-16H216A8,8,0,0,1,224,216Zm24-80v24a8,8,0,0,1-8,8H61.07a39.75,39.75,0,0,1-38.31-28.51L8.69,92.6A16,16,0,0,1,24,72h8a8,8,0,0,1,5.65,2.34L59.32,96H81.81l-9-26.94A16,16,0,0,1,88,48h8a8,8,0,0,1,5.66,2.34L147.32,96H208A40,40,0,0,1,248,136Zm-16,0a24,24,0,0,0-24-24H144a8,8,0,0,1-5.65-2.34L92.69,64H88l12.49,37.47A8,8,0,0,1,92.91,112H56a8,8,0,0,1-5.66-2.34L28.69,88H24l14.07,46.9a23.85,23.85,0,0,0,23,17.1H232Z"></path></svg>
    
    <svg id="house-line" xmlns="http://www.w3.org/2000/svg" width="32" height="32" fill="currentColor" viewBox="0 0 256 256"><path d="M240,208H224V136l2.34,2.34A8,8,0,0,0,237.66,127L139.31,28.68a16,16,0,0,0-22.62,0L18.34,127a8,8,0,0,0,11.32,11.31L32,136v72H16a8,8,0,0,0,0,16H240a8,8,0,0,0,0-16ZM48,120l80-80,80,80v88H160V152a8,8,0,0,0-8-8H104a8,8,0,0,0-8,8v56H48Zm96,88H112V160h32Z"></path></svg>
    <svg id="road-horizon" xmlns="http://www.w3.org/2000/svg" width="32" height="32" fill="currentColor" viewBox="0 0 256 256"><path d="M235.92,199A8,8,0,0,1,225,195.92L155.32,72H136v8a8,8,0,0,1-16,0V72H100.68L31,195.92A8,8,0,0,1,17,188.08L82.32,72H24a8,8,0,0,1,0-16H232a8,8,0,0,1,0,16H173.68L239,188.08A8,8,0,0,1,235.92,199ZM128,112a8,8,0,0,0-8,8v16a8,8,0,0,0,16,0V120A8,8,0,0,0,128,112Zm0,56a8,8,0,0,0-8,8v16a8,8,0,0,0,16,0V176A8,8,0,0,0,128,168Z"></path></svg>
    <svg id="globe" xmlns="http://www.w3.org/2000/svg" width="32" height="32" fill="currentColor" viewBox="0 0 256 256"><path d="M128,24h0A104,104,0,1,0,232,128,104.12,104.12,0,0,0,128,24Zm88,104a87.61,87.61,0,0,1-3.33,24H174.16a157.44,157.44,0,0,0,0-48h38.51A87.61,87.61,0,0,1,216,128ZM102,168H154a115.11,115.11,0,0,1-26,45A115.27,115.27,0,0,1,102,168Zm-3.9-16a140.84,140.84,0,0,1,0-48h59.88a140.84,140.84,0,0,1,0,48ZM40,128a87.61,87.61,0,0,1,3.33-24H81.84a157.44,157.44,0,0,0,0,48H43.33A87.61,87.61,0,0,1,40,128ZM154,88H102a115.11,115.11,0,0,1,26-45A115.27,115.27,0,0,1,154,88Zm52.33,0H170.71a135.28,135.28,0,0,0-22.3-45.6A88.29,88.29,0,0,1,206.37,88ZM107.59,42.4A135.28,135.28,0,0,0,85.29,88H49.63A88.29,88.29,0,0,1,107.59,42.4ZM49.63,168H85.29a135.28,135.28,0,0,0,22.3,45.6A88.29,88.29,0,0,1,49.63,168Zm98.78,45.6a135.28,135.28,0,0,0,22.3-45.6h35.66A88.29,88.29,0,0,1,148.41,213.6Z"></path></svg>
    <svg id="gps" xmlns="http://www.w3.org/2000/svg" width="32" height="32" fill="currentColor" viewBox="0 0 256 256"><path d="M240,120H215.63A88.13,88.13,0,0,0,136,40.37V16a8,8,0,0,0-16,0V40.37A88.13,88.13,0,0,0,40.37,120H16a8,8,0,0,0,0,16H40.37A88.13,88.13,0,0,0,120,215.63V240a8,8,0,0,0,16,0V215.63A88.13,88.13,0,0,0,215.63,136H240a8,8,0,0,0,0-16ZM128,200a72,72,0,1,1,72-72A72.08,72.08,0,0,1,128,200Z"></path></svg>
    <svg id="arrow-bend-up-left" xmlns="http://www.w3.org/2000/svg" width="32" height="32" fill="currentColor" viewBox="0 0 256 256"><path d="M232,200a8,8,0,0,1-16,0,88.1,88.1,0,0,0-88-88H51.31l34.35,34.34a8,8,0,0,1-11.32,11.32l-48-48a8,8,0,0,1,0-11.32l48-48A8,8,0,0,1,85.66,61.66L51.31,96H128A104.11,104.11,0,0,1,232,200Z"></path></svg>
    <svg id="lightning" xmlns="http://www.w3.org/2000/svg" width="32" height="32" fill="currentColor" viewBox="0 0 256 256"><path d="M215.79,118.17a8,8,0,0,0-5-5.66L153.18,90.9l14.66-73.33a8,8,0,0,0-13.69-7l-112,120a8,8,0,0,0,3,13l57.63,21.61L88.16,238.43a8,8,0,0,0,13.69,7l112-120A8,8,0,0,0,215.79,118.17ZM109.37,214l10.47-52.38a8,8,0,0,0-5-9.06L62,132.71l84.62-90.66L136.16,94.43a8,8,0,0,0,5,9.06l52.8,19.8Z"></path></svg>
    <svg id="file-arrow-up" xmlns="http://www.w3.org/2000/svg" width="32" height="32" fill="currentColor" viewBox="0 0 256 256"><path d="M213.66,82.34l-56-56A8,8,0,0,0,152,24H56A16,16,0,0,0,40,40V216a16,16,0,0,0,16,16H200a16,16,0,0,0,16-16V88A8,8,0,0,0,213.66,82.34ZM160,51.31,188.69,80H160ZM200,216H56V40h88V88a8,8,0,0,0,8,8h48V216Zm-42.34-77.66a8,8,0,0,1-11.32,11.32L136,139.31V184a8,8,0,0,1-16,0V139.31l-10.34,10.35a8,8,0,0,1-11.32-11.32l24-24a8,8,0,0,1,11.32,0Z"></path></svg>
    <svg id="funnel-simple" xmlns="http://www.w3.org/2000/svg" width="32" height="32" fill="currentColor" viewBox="0 0 256 256"><path d="M200,136a8,8,0,0,1-8,8H64a8,8,0,0,1,0-16H192A8,8,0,0,1,200,136Zm32-56H24a8,8,0,0,0,0,16H232a8,8,0,0,0,0-16Zm-80,96H104a8,8,0,0,0,0,16h48a8,8,0,0,0,0-16Z"></path></svg>
    <svg id="article" xmlns="http://www.w3.org/2000/svg" width="32" height="32" fill="currentColor" viewBox="0 0 256 256"><path d="M216,40H40A16,16,0,0,0,24,56V200a16,16,0,0,0,16,16H216a16,16,0,0,0,16-16V56A16,16,0,0,0,216,40Zm0,160H40V56H216V200ZM184,96a8,8,0,0,1-8,8H80a8,8,0,0,1,0-16h96A8,8,0,0,1,184,96Zm0,32a8,8,0,0,1-8,8H80a8,8,0,0,1,0-16h96A8,8,0,0,1,184,128Zm0,32a8,8,0,0,1-8,8H80a8,8,0,0,1,0-16h96A8,8,0,0,1,184,160Z"></path></svg>
    <svg id="speaker-high" xmlns="http://www.w3.org/2000/svg" width="32" height="32" fill="currentColor" viewBox="0 0 256 256"><path d="M155.51,24.81a8,8,0,0,0-8.42.88L77.25,80H32A16,16,0,0,0,16,96v64a16,16,0,0,0,16,16H77.25l69.84,54.31A8,8,0,0,0,160,224V32A8,8,0,0,0,155.51,24.81ZM32,96H72v64H32ZM144,207.64,88,164.09V91.91l56-43.55Zm54-106.08a40,40,0,0,1,0,52.88,8,8,0,0,1-12-10.58,24,24,0,0,0,0-31.72,8,8,0,0,1,12-10.58ZM248,128a79.9,79.9,0,0,1-20.37,53.34,8,8,0,0,1-11.92-10.67,64,64,0,0,0,0-85.33,8,8,0,1,1,11.92-10.67A79.83,79.83,0,0,1,248,128Z"></path></svg>
    <svg id="arrow-down" xmlns="http://www.w3.org/2000/svg" width="32" height="32" fill="currentColor" viewBox="0 0 256 256"><path d="M205.66,149.66l-72,72a8,8,0,0,1-11.32,0l-72-72a8,8,0,0,1,11.32-11.32L120,196.69V40a8,8,0,0,1,16,0V196.69l58.34-58.35a8,8,0,0,1,11.32,11.32Z"></path></svg>
    <svg id="toggle-left" xmlns="http://www.w3.org/2000/svg" width="32" height="32" fill="currentColor" viewBox="0 0 256 256"><path d="M176,56H80a72,72,0,0,0,0,144h96a72,72,0,0,0,0-144Zm0,128H80A56,56,0,0,1,80,72h96a56,56,0,0,1,0,112ZM80,88a40,40,0,1,0,40,40A40,40,0,0,0,80,88Zm0,64a24,24,0,1,1,24-24A24,24,0,0,1,80,152Z"></path></svg>
    <svg id="toggle-right" xmlns="http://www.w3.org/2000/svg" width="32" height="32" fill="currentColor" viewBox="0 0 256 256"><path d="M176,56H80a72,72,0,0,0,0,144h96a72,72,0,0,0,0-144Zm0,128H80A56,56,0,0,1,80,72h96a56,56,0,0,1,0,112Zm0-96a40,40,0,1,0,40,40A40,40,0,0,0,176,88Zm0,64a24,24,0,1,1,24-24A24,24,0,0,1,176,152Z"></path></svg>
    <svg id="smiley" xmlns="http://www.w3.org/2000/svg" width="32" height="32" fill="currentColor" viewBox="0 0 256 256"><path d="M128,24A104,104,0,1,0,232,128,104.11,104.11,0,0,0,128,24Zm0,192a88,88,0,1,1,88-88A88.1,88.1,0,0,1,128,216ZM80,108a12,12,0,1,1,12,12A12,12,0,0,1,80,108Zm96,0a12,12,0,1,1-12-12A12,12,0,0,1,176,108Zm-1.07,48c-10.29,17.79-27.4,28-46.93,28s-36.63-10.2-46.92-28a8,8,0,1,1,13.84-8c7.47,12.91,19.21,20,33.08,20s25.61-7.1,33.07-20a8,8,0,0,1,13.86,8Z"></path></svg>
    <svg id="chats" xmlns="http://www.w3.org/2000/svg" width="32" height="32" fill="currentColor" viewBox="0 0 256 256"><path d="M216,80H184V48a16,16,0,0,0-16-16H40A16,16,0,0,0,24,48V176a8,8,0,0,0,13,6.22L72,154V184a16,16,0,0,0,16,16h93.59L219,230.22a8,8,0,0,0,5,1.78,8,8,0,0,0,8-8V96A16,16,0,0,0,216,80ZM66.55,137.78,40,159.25V48H168v88H71.58A8,8,0,0,0,66.55,137.78ZM216,207.25l-26.55-21.47a8,8,0,0,0-5-1.78H88V152h80a16,16,0,0,0,16-16V96h32Z"></path></svg>
  </defs>  

 

  

  

  <svg id="tree-structure" xmlns="http://www.w3.org/2000/svg" width="32" height="32" fill="currentColor" viewBox="0 0 256 256"><path d="M160,112h48a16,16,0,0,0,16-16V48a16,16,0,0,0-16-16H160a16,16,0,0,0-16,16V64H128a24,24,0,0,0-24,24v32H72v-8A16,16,0,0,0,56,96H24A16,16,0,0,0,8,112v32a16,16,0,0,0,16,16H56a16,16,0,0,0,16-16v-8h32v32a24,24,0,0,0,24,24h16v16a16,16,0,0,0,16,16h48a16,16,0,0,0,16-16V160a16,16,0,0,0-16-16H160a16,16,0,0,0-16,16v16H128a8,8,0,0,1-8-8V88a8,8,0,0,1,8-8h16V96A16,16,0,0,0,160,112ZM56,144H24V112H56v32Zm104,16h48v48H160Zm0-112h48V96H160Z"></path></svg>

  <svg id="dots-three-circle" xmlns="http://www.w3.org/2000/svg" width="32" height="32" fill="currentColor" viewBox="0 0 256 256"><path d="M128,24A104,104,0,1,0,232,128,104.11,104.11,0,0,0,128,24Zm0,192a88,88,0,1,1,88-88A88.1,88.1,0,0,1,128,216Zm12-88a12,12,0,1,1-12-12A12,12,0,0,1,140,128Zm44,0a12,12,0,1,1-12-12A12,12,0,0,1,184,128Zm-88,0a12,12,0,1,1-12-12A12,12,0,0,1,96,128Z"></path></svg>

  <svg id="vector-three"  xmlns="http://www.w3.org/2000/svg" width="32" height="32" fill="currentColor" viewBox="0 0 256 256"><path d="M237.66,141.66l-32,32a8,8,0,0,1-11.32-11.32L212.69,144H123.31l-56,56H96a8,8,0,0,1,0,16H48a8,8,0,0,1-8-8V160a8,8,0,0,1,16,0v28.69l56-56V43.31L93.66,61.66A8,8,0,0,1,82.34,50.34l32-32a8,8,0,0,1,11.32,0l32,32a8,8,0,0,1-11.32,11.32L128,43.31V128h84.69l-18.35-18.34a8,8,0,0,1,11.32-11.32l32,32A8,8,0,0,1,237.66,141.66Z"></path></svg>

  
  <svg id="resize" xmlns="http://www.w3.org/2000/svg" width="32" height="32" fill="currentColor" viewBox="0 0 256 256"><path d="M136,112H48a8,8,0,0,0-8,8v88a8,8,0,0,0,8,8h88a8,8,0,0,0,8-8V120A8,8,0,0,0,136,112Zm-8,88H56V128h72Zm88-16v16a16,16,0,0,1-16,16H176a8,8,0,0,1,0-16h24V184a8,8,0,0,1,16,0Zm0-72v32a8,8,0,0,1-16,0V112a8,8,0,0,1,16,0Zm0-56V72a8,8,0,0,1-16,0V56H184a8,8,0,0,1,0-16h16A16,16,0,0,1,216,56Zm-64-8a8,8,0,0,1-8,8H112a8,8,0,0,1,0-16h32A8,8,0,0,1,152,48ZM40,80V56A16,16,0,0,1,56,40H72a8,8,0,0,1,0,16H56V80a8,8,0,0,1-16,0Z"></path></svg>

  


</svg>