<svg xmlns="http://www.w3.org/2000/svg" viewBox="0 0 1128 552">
  
  <defs>
    
    <svg id="club" xmlns="http://www.w3.org/2000/svg" width="20" height="20" fill="currentColor" viewBox="0 0 256 256"><path d="M184,92a52.88,52.88,0,0,0-8.26.65,52,52,0,1,0-95.48,0A52.88,52.88,0,0,0,72,92a52,52,0,1,0,31.38,93.48L92.17,222.85A4,4,0,0,0,96,228h64a4,4,0,0,0,3.83-5.15l-11.21-37.37A52,52,0,1,0,184,92Zm0,96a43.92,43.92,0,0,1-36.73-19.77,4,4,0,0,0-7.17,3.36L154.62,220H101.38l14.52-48.41a4,4,0,0,0-7.17-3.36,44,44,0,1,1-21.91-65.67,4,4,0,0,0,4.66-6,44,44,0,1,1,73,0,4,4,0,0,0,4.66,6A44,44,0,1,1,184,188Z"></path></svg>
    <svg id="diamond" xmlns="http://www.w3.org/2000/svg" width="20" height="20" fill="currentColor" viewBox="0 0 256 256"><path d="M232.5,119.55,136.45,23.49a12,12,0,0,0-16.9,0l-96,96.06a12,12,0,0,0,0,16.9l96.05,96.06a12,12,0,0,0,16.9,0l96.05-96.06a12,12,0,0,0,0-16.9Zm-5.66,11.24-96.05,96.06a4,4,0,0,1-5.58,0l-96-96.06a3.94,3.94,0,0,1,0-5.58l96.05-96.06a4,4,0,0,1,5.58,0l96.05,96.06a3.94,3.94,0,0,1,0,5.58Z"></path></svg>
    <svg id="heart" xmlns="http://www.w3.org/2000/svg" width="20" height="20" fill="currentColor" viewBox="0 0 256 256"><path d="M178,44c-21.44,0-39.92,10.19-50,27.07C117.92,54.19,99.44,44,78,44a58.07,58.07,0,0,0-58,58c0,28.59,18,58.47,53.4,88.79a333.81,333.81,0,0,0,52.7,36.73,4,4,0,0,0,3.8,0,333.81,333.81,0,0,0,52.7-36.73C218,160.47,236,130.59,236,102A58.07,58.07,0,0,0,178,44ZM128,219.42c-14-8-100-59.35-100-117.42A50.06,50.06,0,0,1,78,52c21.11,0,38.85,11.31,46.3,29.51a4,4,0,0,0,7.4,0C139.15,63.31,156.89,52,178,52a50.06,50.06,0,0,1,50,50C228,160,142,211.46,128,219.42Z"></path></svg>
    <svg id="spade" xmlns="http://www.w3.org/2000/svg" width="20" height="20" fill="currentColor" viewBox="0 0 256 256"><path d="M178.56,52.93a281.08,281.08,0,0,0-48.77-32.51,4,4,0,0,0-3.58,0A281.08,281.08,0,0,0,77.44,52.93C45.1,79.88,28,108.61,28,136a52,52,0,0,0,76.46,45.89l-12.29,41A4,4,0,0,0,96,228h64a4,4,0,0,0,3.83-5.15l-12.29-41A52,52,0,0,0,228,136C228,108.61,210.9,79.88,178.56,52.93ZM176,180a44,44,0,0,1-28.92-10.84,4,4,0,0,0-6.46,4.17l14,46.67H101.38l14-46.67a4,4,0,0,0-6.46-4.17A44,44,0,0,1,36,136c0-56.06,79-100.56,92-107.49,13,6.93,92,51.38,92,107.49A44.05,44.05,0,0,1,176,180Z"></path></svg>


    <!-- FILL -->
    <svg id="fill_club" xmlns="http://www.w3.org/2000/svg" width="32" height="32" fill="#000000" viewBox="0 0 256 256"><path d="M240,144a56,56,0,0,1-84.81,48h-4.44l8.91,29.7A8,8,0,0,1,152,232H104a8,8,0,0,1-7.66-10.3l8.91-29.7h-4.44A56,56,0,1,1,72,88c.78,0,1.55,0,2.33,0a56,56,0,1,1,107.34,0c.77,0,1.55,0,2.33,0A56.06,56.06,0,0,1,240,144Z"></path></svg>
    <svg id="fill_diamond" xmlns="http://www.w3.org/2000/svg" width="32" height="32" fill="#b62525" viewBox="0 0 256 256"><path d="M240,128a15.85,15.85,0,0,1-4.67,11.28l-96.05,96.06a16,16,0,0,1-22.56,0h0l-96-96.06a16,16,0,0,1,0-22.56l96.05-96.06a16,16,0,0,1,22.56,0l96.05,96.06A15.85,15.85,0,0,1,240,128Z"></path></svg>
    <svg id="fill_heart" xmlns="http://www.w3.org/2000/svg" width="32" height="32" fill="#b62525" viewBox="0 0 256 256"><path d="M240,102c0,70-103.79,126.66-108.21,129a8,8,0,0,1-7.58,0C119.79,228.66,16,172,16,102A62.07,62.07,0,0,1,78,40c20.65,0,38.73,8.88,50,23.89C139.27,48.88,157.35,40,178,40A62.07,62.07,0,0,1,240,102Z"></path></svg>
    <svg id="fill_spade" xmlns="http://www.w3.org/2000/svg" width="32" height="32" fill="#000000" viewBox="0 0 256 256"><path d="M232,136a56,56,0,0,1-83.4,48.82l11.06,36.88A8,8,0,0,1,152,232H104a8,8,0,0,1-7.66-10.3l11.06-36.88A56,56,0,0,1,24,136c0-32,17.65-62.84,51-89.27a234.14,234.14,0,0,1,49.89-30.11,7.93,7.93,0,0,1,6.16,0A234.14,234.14,0,0,1,181,46.73C214.35,73.16,232,104,232,136Z"></path></svg>

  </defs>  
 
</svg>